<svg width="20" height="20" viewBox="0 0 16 16" fill="none" xmlns="http://www.w3.org/2000/svg">
    <path fill-rule="evenodd" clip-rule="evenodd" d="M7.9999 1C8.13251 1 8.25968 1.05268 8.35345 1.14645C8.44722 1.24021 8.4999 1.36739 8.4999 1.5V13.293L11.6459 10.146C11.7398 10.0521 11.8671 9.99937 11.9999 9.99937C12.1327 9.99937 12.26 10.0521 12.3539 10.146C12.4478 10.2399 12.5005 10.3672 12.5005 10.5C12.5005 10.6328 12.4478 10.7601 12.3539 10.854L8.3539 14.854C8.30745 14.9006 8.25228 14.9375 8.19153 14.9627C8.13079 14.9879 8.06567 15.0009 7.9999 15.0009C7.93413 15.0009 7.86901 14.9879 7.80827 14.9627C7.74752 14.9375 7.69234 14.9006 7.6459 14.854L3.6459 10.854C3.55201 10.7601 3.49927 10.6328 3.49927 10.5C3.49927 10.3672 3.55201 10.2399 3.6459 10.146C3.73979 10.0521 3.86712 9.99937 3.9999 9.99937C4.13267 9.99937 4.26001 10.0521 4.3539 10.146L7.4999 13.293V1.5C7.4999 1.36739 7.55258 1.24021 7.64635 1.14645C7.74011 1.05268 7.86729 1 7.9999 1Z" fill="white" fill-opacity="0.88"/>
</svg>
