<svg width="24" height="24" viewBox="0 0 24 24" fill="none" xmlns="http://www.w3.org/2000/svg">
<path d="M9.54375 10.883C9.77679 10.7143 9.88929 10.4357 9.88929 10.0527C9.89732 9.87054 9.85982 9.69107 9.77946 9.52768C9.70714 9.39643 9.6 9.28661 9.46875 9.20893C9.33266 9.1264 9.18151 9.07177 9.02411 9.04821C8.85268 9.01607 8.67857 9 8.50714 9.00268H6.62411V11.1375H8.6625C9.01339 11.1402 9.31071 11.0545 9.54375 10.883ZM9.85982 12.8116C9.59732 12.6107 9.24643 12.5116 8.80982 12.5116H6.61875V15.0295H8.76696C8.96786 15.0295 9.15268 15.0107 9.33214 14.9732C9.50194 14.94 9.6638 14.8745 9.80893 14.7804C9.94554 14.692 10.0554 14.5714 10.1384 14.4161C10.2188 14.2607 10.2589 14.0625 10.2589 13.8241C10.2589 13.35 10.125 13.0152 9.85982 12.8116ZM12 0C5.37321 0 0 5.37321 0 12C0 18.6268 5.37321 24 12 24C18.6268 24 24 18.6268 24 12C24 5.37321 18.6268 0 12 0ZM14.317 7.68482H18.0241V8.5875H14.317V7.68482ZM12 15.1286C11.8266 15.4577 11.579 15.742 11.2768 15.9589C10.9607 16.1786 10.6098 16.3393 10.2375 16.433C9.84796 16.5374 9.44613 16.5888 9.04286 16.5857H4.60714V7.44911H8.91964C9.35625 7.44911 9.75268 7.48929 10.1143 7.56429C10.4732 7.63929 10.7786 7.76786 11.0357 7.94196C11.2902 8.11607 11.4911 8.34911 11.633 8.63839C11.7723 8.925 11.8446 9.28393 11.8446 9.70982C11.8446 10.1705 11.7402 10.5509 11.5312 10.8589C11.3196 11.167 11.0143 11.4161 10.5991 11.6116C11.1643 11.7723 11.5795 12.0589 11.8527 12.4607C12.1313 12.8679 12.2679 13.3554 12.2679 13.9286C12.2679 14.3946 12.1795 14.7937 12 15.1286ZM19.4679 13.7143H14.6893C14.6893 14.2339 14.8688 14.7321 15.1393 15C15.4125 15.2652 15.8036 15.3991 16.3152 15.3991C16.6848 15.3991 16.9982 15.3054 17.2661 15.1205C17.5312 14.9357 17.692 14.7402 17.7509 14.5366H19.3527C19.0955 15.3321 18.7045 15.9 18.1741 16.2429C17.6491 16.5857 17.0063 16.7571 16.2589 16.7571C15.7366 16.7571 15.2679 16.6714 14.8473 16.508C14.4429 16.35 14.0786 16.1089 13.7786 15.7982C13.4828 15.4791 13.2541 15.1038 13.1062 14.6946C12.9429 14.242 12.8625 13.7652 12.8679 13.2857C12.8679 12.7902 12.9509 12.3295 13.1116 11.9009C13.4196 11.0679 14.0598 10.4009 14.8768 10.0554C15.3134 9.87321 15.7821 9.78214 16.2563 9.7875C16.8188 9.7875 17.3063 9.89464 17.7295 10.1143C18.1369 10.324 18.4906 10.6246 18.7634 10.9929C19.0339 11.3598 19.2241 11.7777 19.3446 12.2491C19.4598 12.7125 19.5 13.2 19.4679 13.7143ZM16.2 11.1536C15.9107 11.1536 15.667 11.2045 15.4795 11.3036C15.292 11.4027 15.1366 11.5259 15.0188 11.6679C14.9065 11.8049 14.8236 11.9635 14.775 12.1339C14.7321 12.2759 14.7027 12.4205 14.692 12.5679H17.6518C17.6089 12.1045 17.4482 11.7616 17.2339 11.5205C17.0089 11.2821 16.6473 11.1536 16.2 11.1536Z" fill="url(#paint0_linear_418_68)"/>
<defs>
<linearGradient id="paint0_linear_418_68" x1="24" y1="12" x2="-0.436364" y2="12" gradientUnits="userSpaceOnUse">
<stop stop-color="#A42C7B"/>
<stop offset="1" stop-color="#224078"/>
</linearGradient>
</defs>
</svg>
