<svg width="121" height="41" viewBox="0 0 121 41" fill="none" xmlns="http://www.w3.org/2000/svg">
<path d="M6.60742 29.2802C6.38622 29.2802 6.17608 29.2692 5.977 29.247C5.80004 29.2249 5.63414 29.1917 5.4793 29.1475C5.32446 28.9042 5.1475 28.6609 4.94842 28.4175C4.74934 28.1963 4.63874 27.9309 4.61662 27.6212C4.7051 27.5327 4.74934 27.4221 4.74934 27.2894C4.74934 27.2231 4.73828 27.1567 4.71616 27.0903C4.71616 27.024 4.7051 26.9576 4.68298 26.8913C4.68298 26.847 4.71616 26.8249 4.78252 26.8249C4.95948 26.8249 5.0369 26.7475 5.01478 26.5926C5.01478 26.4599 5.05902 26.3493 5.1475 26.2608L5.34658 26.294C5.54566 26.1392 5.80004 25.918 6.10972 25.6304C6.4194 25.3429 6.61848 25.0885 6.70696 24.8673L7.1383 24.7346C7.1383 24.7346 7.11618 24.7346 7.07194 24.7346C7.04982 24.7124 7.07194 24.6903 7.1383 24.6682L8.43232 24.0046V23.8055L9.19546 23.5401L9.36136 23.6728L9.49408 23.2746L10.0913 23.1419L10.1909 22.9428L11.4185 22.4783V22.412L11.7503 22.611L11.9494 22.2792L13.343 21.7152L13.8738 21.7484L13.7411 21.5493C14.1172 21.3944 14.5374 21.2175 15.002 21.0184C15.4886 20.7972 15.9531 20.6866 16.3955 20.6866C16.4619 20.6866 16.5282 20.6866 16.5946 20.6866C16.661 20.6866 16.7273 20.6977 16.7937 20.7198V20.3548H16.8269C16.8711 20.3548 16.9485 20.3659 17.0591 20.388C17.1697 20.4101 17.1808 20.3548 17.0923 20.2221C17.4683 20.1778 17.8001 20.0672 18.0877 19.8903C18.3974 19.7133 18.7292 19.5695 19.0831 19.4589L19.614 18.3308L19.4813 18.2313L19.9458 17.2027C19.9237 17.2027 19.9126 17.2027 19.9126 17.2027V17.1363C19.9126 17.0921 19.9126 17.0479 19.9126 17.0036C19.9126 16.9373 19.9237 16.893 19.9458 16.8709C19.9458 16.8488 19.979 16.8267 20.0453 16.8045C20.1117 16.7824 20.1449 16.7603 20.1449 16.7382L19.9458 16.6718V16.6055C19.9458 16.517 19.9679 16.4285 20.0121 16.34C20.0564 16.2294 20.0785 16.1741 20.0785 16.1741V15.7428H20.2776C20.1891 15.4552 20.1449 15.1234 20.1449 14.7474L20.4103 14.5483L20.3108 14.5815L20.1449 14.6478V14.3492C20.1449 14.1723 20.1338 14.0064 20.1117 13.8515C20.0896 13.6746 20.0564 13.5197 20.0121 13.387C20.1006 13.4091 20.178 13.3649 20.2444 13.2543C20.3108 13.1437 20.3218 13.0663 20.2776 13.022C20.2555 12.9999 20.2002 12.9999 20.1117 13.022C20.0453 13.0441 19.99 13.0441 19.9458 13.022L20.0785 12.8561C20.0121 12.7013 19.9347 12.5464 19.8462 12.3916C19.7578 12.2368 19.8131 12.1483 20.0121 12.1262L19.6803 11.6948L19.8131 11.5289L19.4149 11.1639L19.3817 11.1308C19.3817 11.0865 19.426 11.0423 19.5144 10.998C19.6029 10.9538 19.6582 10.9096 19.6803 10.8653L19.0167 10.1022C19.0831 10.1022 19.1163 10.0579 19.1163 9.96946C19.1163 9.85886 19.0831 9.74826 19.0167 9.63766C18.9504 9.50494 18.884 9.4054 18.8177 9.33904L18.4195 9.20632V9.17314C18.4195 9.10678 18.3974 9.02936 18.3531 8.94088C18.331 8.8524 18.3089 8.78604 18.2868 8.7418L17.955 8.54272L18.1541 8.47636C17.9107 8.43212 17.7006 8.2994 17.5236 8.0782C17.3467 7.857 17.1697 7.62474 16.9928 7.38142C16.8379 7.1381 16.6499 6.9722 16.4287 6.88372C16.4508 6.88372 16.4619 6.8616 16.4619 6.81736C16.4619 6.77312 16.4176 6.72888 16.3292 6.68464C16.2628 6.6404 16.2075 6.6404 16.1633 6.68464C15.8978 6.50768 15.6434 6.29754 15.4001 6.05422C15.1789 5.8109 14.9688 5.55652 14.7697 5.29108L14.4047 5.35744C14.3162 5.3132 14.2609 5.2579 14.2388 5.19154C14.2167 5.10306 14.1835 5.0367 14.1393 4.99246H13.7411V4.79338L13.1439 4.52794L13.2434 4.46158C13.0001 4.4837 12.7789 4.4284 12.5798 4.29568C12.3807 4.14084 12.1485 4.05236 11.883 4.03024L11.9494 3.96388C11.9494 3.89752 11.8609 3.86434 11.684 3.86434C11.507 3.86434 11.3964 3.85328 11.3522 3.83116C11.4185 3.72056 11.3411 3.64314 11.1199 3.5989C10.9208 3.53254 10.6996 3.4883 10.4563 3.46618C10.213 3.42194 10.0471 3.39982 9.9586 3.39982C9.9586 3.22286 9.92542 3.13438 9.85906 3.13438C9.77058 3.13438 9.65998 3.25604 9.52726 3.49936C9.41666 3.74268 9.39454 3.91964 9.4609 4.03024L8.9632 4.62748C8.98532 4.6496 9.0185 4.67172 9.06274 4.69384C9.1291 4.69384 9.14016 4.7049 9.09592 4.72702H8.93002C8.88578 5.05882 8.84154 5.26896 8.7973 5.35744C8.77518 5.4238 8.64246 5.56758 8.39914 5.78878L8.43232 6.15376C8.36596 6.17588 8.2996 6.22012 8.23324 6.28648C8.16688 6.33072 8.10052 6.37496 8.03416 6.4192H8.23324L8.03416 7.14916H7.86826L7.40374 8.60908L7.33738 8.54272L7.23784 9.33904L6.9724 9.4054L7.17148 9.53812L6.9724 9.60448C6.99452 9.98052 6.95028 10.3013 6.83968 10.5667C6.72908 10.8321 6.65166 11.1529 6.60742 11.5289L6.40834 11.5953L6.44152 11.9603C6.3088 12.1815 6.22032 12.4358 6.17608 12.7234C6.15396 12.9888 6.12078 13.2432 6.07654 13.4865L5.8111 13.752C5.85534 13.9289 5.87746 14.0727 5.87746 14.1833C5.87746 14.4045 5.83322 14.5925 5.74474 14.7474L5.4793 14.8137L5.61202 15.3446C5.52354 15.3667 5.43506 15.3446 5.34658 15.2783L5.1475 16.34C5.32446 16.517 5.3687 16.6386 5.28022 16.705C5.21386 16.7492 5.23598 16.8045 5.34658 16.8709L5.28022 17.3354C5.2581 17.3133 5.22492 17.3022 5.18068 17.3022C5.11432 17.3022 5.08114 17.3686 5.08114 17.5013C5.08114 17.5898 5.0922 17.6893 5.11432 17.7999C5.13644 17.8884 5.1475 17.9437 5.1475 17.9658H4.94842L5.01478 18.0654C5.0369 18.1539 5.04796 18.2534 5.04796 18.364C5.07008 18.4746 5.08114 18.5852 5.08114 18.6958C5.08114 19.1603 4.97054 19.5032 4.74934 19.7244L4.88206 20.2221H4.84888C4.80464 20.2221 4.74934 20.211 4.68298 20.1889C4.63874 20.1668 4.5945 20.1668 4.55026 20.1889V20.2884L4.8157 20.8193H4.61662L4.68298 20.8857V22.4783C4.66086 22.5004 4.62768 22.4783 4.58344 22.412C4.5392 22.3235 4.50602 22.3014 4.4839 22.3456C4.46178 22.3677 4.45072 22.412 4.45072 22.4783C4.45072 22.5668 4.4839 22.6885 4.55026 22.8433C4.61662 22.976 4.66086 23.0756 4.68298 23.1419L4.41754 23.2083L4.4839 23.2746V23.341L4.68298 23.2083V23.5401L4.4839 23.6064L4.68298 23.7392C4.66086 23.7613 4.60556 23.7723 4.51708 23.7723C4.4286 23.7502 4.3733 23.7392 4.35118 23.7392V23.8055H4.68298L4.4839 24.3364C4.7051 24.5576 4.8157 24.812 4.8157 25.0995C4.8157 25.2986 4.77146 25.4424 4.68298 25.5309L4.8157 25.6636C4.8157 25.6857 4.8157 25.6968 4.8157 25.6968C4.83782 25.7189 4.84888 25.73 4.84888 25.73C4.84888 25.7963 4.8157 25.8516 4.74934 25.8959C4.7051 25.9401 4.66086 25.9512 4.61662 25.929L4.88206 26.294L4.41754 26.3604C4.24058 26.2055 4.10786 25.9954 4.01938 25.73C3.9309 25.4645 3.86454 25.2212 3.8203 25L4.01938 24.8673C3.84242 24.7346 3.72076 24.5023 3.6544 24.1705C3.61016 23.8387 3.58804 23.4958 3.58804 23.1419C3.58804 22.9428 3.58804 22.7548 3.58804 22.5779C3.61016 22.4009 3.62122 22.2571 3.62122 22.1465L3.8203 22.0802L3.75394 21.8811L3.88666 21.2838L3.68758 20.753L3.8203 20.6202L3.75394 19.8239C3.84242 19.9345 3.90878 19.9013 3.95302 19.7244C3.99726 19.5474 4.03044 19.3373 4.05256 19.094C4.07468 18.8506 4.08574 18.7069 4.08574 18.6626C4.0415 18.552 4.05256 18.3308 4.11892 17.999C4.18528 17.6672 4.21846 17.2248 4.21846 16.6718C4.28482 16.6939 4.32906 16.5944 4.35118 16.3732C4.3733 16.1299 4.40648 15.8644 4.45072 15.5769C4.49496 15.2672 4.55026 15.0571 4.61662 14.9465L4.68298 15.0792C4.68298 14.5704 4.74934 14.0838 4.88206 13.6193C5.0369 13.1326 5.12538 12.646 5.1475 12.1593C5.23598 12.2699 5.30234 12.2478 5.34658 12.093C5.39082 11.916 5.424 11.7169 5.44612 11.4957C5.46824 11.2524 5.4793 11.1086 5.4793 11.0644L5.54566 11.1308L5.61202 10.998L5.91064 9.7372H6.01018L6.27562 9.4054L6.07654 8.80816C6.09866 8.76392 6.15396 8.58696 6.24244 8.27728C6.35304 7.94548 6.4747 7.56944 6.60742 7.14916C6.74014 6.70676 6.8618 6.31966 6.9724 5.98786C7.083 5.63394 7.1383 5.4238 7.1383 5.35744L7.40374 5.29108L7.50328 4.56112L7.60282 4.52794L7.43692 4.46158H7.60282L7.70236 4.29568C7.65812 4.0966 7.68024 3.86434 7.76872 3.5989C7.8572 3.31134 7.97886 3.09014 8.1337 2.9353C7.9125 2.84682 7.61388 2.79152 7.23784 2.7694C6.88392 2.72516 6.48576 2.70304 6.04336 2.70304C5.49036 2.70304 4.93736 2.72516 4.38436 2.7694C3.85348 2.79152 3.42214 2.80258 3.09034 2.80258C2.84702 2.80258 2.68112 2.78046 2.59264 2.73622L2.4931 2.9353L2.29402 2.86894V3.00166H1.23226C1.23226 3.02378 1.23226 3.03484 1.23226 3.03484C1.25438 3.03484 1.26544 3.0459 1.26544 3.06802C1.26544 3.1565 1.19908 3.20074 1.06636 3.20074C0.91152 3.20074 0.8341 3.14544 0.8341 3.03484L0.96682 2.73622C1.67466 2.36018 2.18342 2.13898 2.4931 2.07262C2.80278 1.98414 2.9355 1.87354 2.89126 1.74082C3.06822 1.69658 3.22306 1.67446 3.35578 1.67446C3.42214 1.67446 3.4885 1.68552 3.55486 1.70764C3.62122 1.70764 3.68758 1.7187 3.75394 1.74082L4.01938 1.54174L3.95302 1.40902L4.88206 1.20994L4.94842 1.40902C5.1475 1.18782 5.40188 1.07722 5.71156 1.07722C5.93276 1.07722 6.12078 1.12146 6.27562 1.20994L6.67378 0.944499C6.6959 1.07722 6.85074 1.14358 7.1383 1.14358C7.3595 1.14358 7.60282 1.13252 7.86826 1.1104C8.1337 1.06616 8.37702 1.04404 8.59822 1.04404C8.77518 1.04404 8.89684 1.0551 8.9632 1.07722C9.00744 0.878139 9.10698 0.667999 9.26182 0.446799C9.41666 0.203479 9.60468 0.0818182 9.82588 0.0818182C9.93648 0.103938 10.0139 0.247718 10.0581 0.513159C10.1024 0.778599 10.0692 0.878139 9.9586 0.811779L10.224 1.20994C10.3346 1.29842 10.4674 1.36478 10.6222 1.40902C10.777 1.43114 10.9319 1.4422 11.0867 1.4422C11.1973 1.4422 11.2969 1.4422 11.3853 1.4422C11.4738 1.4422 11.5512 1.43114 11.6176 1.40902C11.5955 1.4975 11.6397 1.5528 11.7503 1.57492C11.8609 1.59704 11.9273 1.56386 11.9494 1.47538C12.613 1.65234 13.2545 1.92884 13.8738 2.30488C14.4932 2.6588 15.1126 2.9353 15.7319 3.13438L15.4997 3.20074C15.8315 3.1565 16.1301 3.23392 16.3955 3.433C16.6831 3.63208 16.9596 3.85328 17.225 4.0966C17.4905 4.33992 17.767 4.51688 18.0545 4.62748L17.955 5.05882C18.1098 5.05882 18.2425 5.00352 18.3531 4.89292L18.5522 5.4238C18.6849 5.49016 18.8177 5.60076 18.9504 5.7556C19.1052 5.91044 19.2379 5.93256 19.3485 5.82196L20.0785 6.68464L20.0121 6.81736L20.5762 7.31506C20.5762 7.60262 20.6979 7.79064 20.9412 7.87912L21.2066 8.47636L21.273 8.41C21.4278 8.6312 21.5827 8.89664 21.7375 9.20632C21.9145 9.516 22.0029 9.81462 22.0029 10.1022H22.1688L22.4343 10.8653L22.3347 11.3298L22.6002 11.7944L22.5338 12.1593L22.7993 12.3916L22.6997 13.1547C22.7661 13.3538 22.7993 13.564 22.7993 13.7852C22.7993 14.0285 22.7661 14.1501 22.6997 14.1501C22.8103 14.1944 22.8656 14.2829 22.8656 14.4156C22.8656 14.5262 22.8103 14.6368 22.6997 14.7474V15.7428L22.3679 16.0746H22.4011C22.4453 16.0746 22.4896 16.0967 22.5338 16.1409C22.5781 16.1631 22.6112 16.1852 22.6334 16.2073C22.5891 16.6055 22.5006 16.9926 22.3679 17.3686C22.2352 17.7225 22.0804 18.0875 21.9034 18.4635C22.0361 18.4635 22.1688 18.4635 22.3016 18.4635C22.4564 18.4414 22.5891 18.4193 22.6997 18.3972L22.8324 18.1317L24.0269 17.7999C24.0269 17.9105 24.0601 17.9658 24.1265 17.9658L23.3633 18.3308C23.5182 18.3972 23.5071 18.4746 23.3301 18.5631C23.1532 18.6294 22.943 18.6958 22.6997 18.7622C22.4785 18.8285 22.3347 18.8838 22.2684 18.9281C22.0472 19.1935 21.7375 19.3815 21.3393 19.4921L21.273 19.7576L20.8085 20.0894L20.8416 20.3548C20.731 20.7751 20.4767 21.0626 20.0785 21.2175V21.3502C19.9237 21.505 19.7467 21.682 19.5476 21.8811C19.3707 22.0802 19.2601 22.3014 19.2158 22.5447L18.8177 22.6774L18.7513 23.0092C18.6186 23.0313 18.4969 23.1198 18.3863 23.2746C18.2757 23.4074 18.1983 23.5401 18.1541 23.6728C18.0877 23.6507 18.0213 23.6396 17.955 23.6396C17.8665 23.6396 17.8223 23.6839 17.8223 23.7723C17.8444 23.8608 17.7338 23.9382 17.4905 24.0046L17.225 23.8719V23.9382L17.3577 24.3364C17.2914 24.3585 17.214 24.3585 17.1255 24.3364C17.037 24.2922 16.9596 24.2922 16.8932 24.3364V24.4691C16.9596 24.4912 17.0259 24.5023 17.0923 24.5023C17.1587 24.4802 17.1697 24.4802 17.1255 24.5023H17.0923L16.2628 25V25.2654C15.8646 25.376 15.5439 25.5309 15.3006 25.73C15.0794 25.929 14.8471 26.1171 14.6038 26.294C14.3605 26.471 13.9955 26.5816 13.5089 26.6258L13.4757 26.8913L12.8121 27.0572L12.8784 27.2894C12.7457 27.3779 12.5466 27.4553 12.2812 27.5217C12.0158 27.6102 11.7946 27.6765 11.6176 27.7208C11.4406 27.765 11.4185 27.7871 11.5512 27.7871H11.5844C11.6287 27.7871 11.5512 27.8314 11.3522 27.9198C11.1531 28.0304 10.9982 28.1079 10.8876 28.1521L10.7549 28.0526L10.3568 28.2185V28.3512C10.025 28.6387 9.48302 28.8599 8.73094 29.0148C7.97886 29.1917 7.27102 29.2802 6.60742 29.2802ZM6.67378 27.5549C6.62954 27.4885 6.62954 27.4 6.67378 27.2894C6.8065 27.2894 7.11618 27.2009 7.60282 27.024C8.11158 26.847 8.66458 26.659 9.26182 26.4599C9.85906 26.283 10.3457 26.1945 10.7217 26.1945C10.6996 26.1502 10.6886 26.0949 10.6886 26.0286C10.6886 25.9622 10.7992 25.8959 11.0204 25.8295L10.954 25.929C10.9098 25.9733 10.954 25.9954 11.0867 25.9954C11.1531 25.7742 11.3743 25.5751 11.7503 25.3982C12.1264 25.2433 12.4913 25.1106 12.8453 25C13.2213 24.9115 13.4093 24.8673 13.4093 24.8673C13.2987 24.823 13.2324 24.7567 13.2102 24.6682L13.2434 24.6018L13.7411 24.5023V24.3364H14.0066V24.1373H14.4047C14.4268 24.0046 14.5927 23.8166 14.9024 23.5733C15.2342 23.3078 15.5771 23.0756 15.931 22.8765C16.2849 22.6553 16.5172 22.5668 16.6278 22.611C16.6278 22.4562 16.6388 22.3345 16.661 22.2461C16.7052 22.1355 16.8047 22.058 16.9596 22.0138C17.0038 22.058 17.0702 22.1023 17.1587 22.1465C17.2471 21.8147 17.3246 21.6156 17.3909 21.5493C17.4573 21.4608 17.5347 21.4166 17.6232 21.4166C17.7117 21.4166 17.8223 21.3723 17.955 21.2838L17.7891 21.2175C17.8333 21.1954 17.8886 21.1511 17.955 21.0848L17.8886 21.0184L17.955 20.8857H17.8886C17.7338 21.0184 17.5347 21.1179 17.2914 21.1843C17.0481 21.2507 16.8269 21.2838 16.6278 21.2838L16.5614 21.4829L16.0305 21.7152L15.7319 21.6156L15.6324 21.8147C15.4775 21.9032 15.3227 21.9585 15.1679 21.9806C15.013 21.9806 14.8471 21.9806 14.6702 21.9806V22.0138C14.6702 22.1686 14.6259 22.2571 14.5374 22.2792C14.449 22.2792 14.3494 22.2792 14.2388 22.2792C14.1282 22.2792 14.0287 22.3677 13.9402 22.5447L13.6748 22.4783C13.542 22.611 13.4425 22.6995 13.3761 22.7438C13.3319 22.7659 13.1992 22.788 12.978 22.8101L13.0775 22.5447H12.978C12.9559 22.6774 12.8784 22.8322 12.7457 23.0092C12.4582 23.0313 12.2038 23.1198 11.9826 23.2746C11.7835 23.4295 11.5512 23.4958 11.2858 23.4737L11.0867 23.7392C10.8434 23.717 10.6664 23.7723 10.5558 23.9051C10.4452 24.0157 10.2904 24.1152 10.0913 24.2037C10.0692 24.1373 10.0471 24.1041 10.025 24.1041C10.025 24.1041 10.0028 24.0931 9.9586 24.071C9.9586 24.2479 9.91436 24.3475 9.82588 24.3696C9.75952 24.3917 9.67104 24.4691 9.56044 24.6018L9.22864 24.5023L9.19546 24.8673C8.86366 24.9336 8.5761 25.0774 8.33278 25.2986C8.08946 25.5419 7.84614 25.7631 7.60282 25.9622C7.38162 26.1834 7.11618 26.3161 6.8065 26.3604L6.60742 26.2608C6.51894 26.4378 6.40834 26.5926 6.27562 26.7254C6.1429 26.8581 6.05442 27.035 6.01018 27.2562C6.09866 27.2784 6.12078 27.3005 6.07654 27.3226C6.05442 27.3668 6.0323 27.4332 6.01018 27.5217C6.12078 27.5217 6.23138 27.5217 6.34198 27.5217C6.45258 27.5217 6.56318 27.5327 6.67378 27.5549ZM27.3646 27.5217C26.9443 27.3005 26.5683 26.9908 26.2365 26.5926L26.3692 26.3272H26.3028L26.1701 26.5263C26.0816 26.1502 25.9931 25.8406 25.9047 25.5972C25.8162 25.376 25.7719 25.1217 25.7719 24.8341C25.7719 24.7235 25.7719 24.624 25.7719 24.5355C25.7941 24.4249 25.8162 24.3143 25.8383 24.2037C25.8162 24.1594 25.783 24.1816 25.7388 24.27C25.7166 24.3364 25.7056 24.3585 25.7056 24.3364V24.2369C25.7056 24.082 25.7277 23.9493 25.7719 23.8387C25.8383 23.706 25.8825 23.5622 25.9047 23.4074C25.8604 23.4074 25.7941 23.4295 25.7056 23.4737L25.6392 23.1419L25.971 23.0756V23.0424C25.7277 22.7769 25.606 22.5226 25.606 22.2792C25.606 22.1465 25.6392 21.9474 25.7056 21.682C25.6171 21.5935 25.5729 21.3834 25.5729 21.0516C25.5729 20.7419 25.595 20.4212 25.6392 20.0894C25.6835 19.7576 25.7056 19.5142 25.7056 19.3594C25.6835 19.3373 25.6503 19.3483 25.606 19.3926C25.5839 19.4368 25.5729 19.47 25.5729 19.4921C25.5507 19.1603 25.5507 18.8175 25.5729 18.4635C25.595 18.1096 25.6171 17.7778 25.6392 17.4681L25.8383 17.3354L25.6392 16.8709L25.9047 16.7382C25.7277 16.4949 25.6392 16.1852 25.6392 15.8091C25.6392 15.6543 25.6392 15.5105 25.6392 15.3778C25.6613 15.223 25.6835 15.0902 25.7056 14.9796L25.9047 14.8469L25.6392 14.5815C25.6392 14.3824 25.6392 14.1723 25.6392 13.9511C25.6613 13.7077 25.6613 13.4755 25.6392 13.2543C25.7277 13.387 25.7719 13.3759 25.7719 13.2211C25.7719 13.0663 25.7277 13.0441 25.6392 13.1547C25.7277 12.9999 25.7609 12.8451 25.7388 12.6902C25.7166 12.5354 25.7498 12.3695 25.8383 12.1925L25.5729 11.7944L25.7719 11.6616C25.5507 11.6616 25.3406 11.6395 25.1415 11.5953C24.9424 11.551 24.7323 11.5289 24.5111 11.5289C24.6659 11.1529 24.9203 10.9649 25.2742 10.9649C25.407 10.9649 25.5729 10.998 25.7719 11.0644L25.8715 10.9317H25.8383L25.9047 10.8985L25.8715 10.9317L25.971 10.998C26.0816 10.9096 26.2475 10.8653 26.4687 10.8653C26.6014 10.8653 26.7342 10.8764 26.8669 10.8985C27.0217 10.9206 27.1434 10.9317 27.2319 10.9317V10.998C27.2319 11.0865 27.2872 11.1529 27.3978 11.1971C27.5305 11.2192 27.63 11.2414 27.6964 11.2635C27.7627 11.352 27.807 11.4626 27.8291 11.5953C27.8512 11.728 27.8623 11.8607 27.8623 11.9934C27.8623 12.281 27.8291 12.5686 27.7627 12.8561C27.7185 13.1216 27.6964 13.3759 27.6964 13.6193L27.63 13.5529C27.5415 13.5529 27.4752 13.6635 27.4309 13.8847C27.4088 14.0838 27.3867 14.2054 27.3646 14.2497C27.4088 14.2276 27.442 14.2497 27.4641 14.316C27.5084 14.3603 27.5415 14.4045 27.5637 14.4488C27.4531 14.6036 27.3867 14.7806 27.3646 14.9796C27.3425 15.1787 27.3425 15.3667 27.3646 15.5437L27.1655 15.6764H27.3646C27.3646 16.0303 27.3425 16.4064 27.2982 16.8045C27.2761 17.1806 27.2097 17.5456 27.0991 17.8995L27.0328 18.0986L27.2319 18.1649C27.2097 18.2534 27.1655 18.3419 27.0991 18.4304C27.0549 18.4967 27.0107 18.5852 26.9664 18.6958H27.0328L27.2319 18.4967V18.8285H27.2982C27.2982 18.6073 27.3425 18.4525 27.4309 18.364C27.5194 18.2534 27.6079 18.1207 27.6964 17.9658L27.63 17.5677C27.7849 17.258 27.8733 16.9483 27.8955 16.6386C27.9176 16.329 28.0061 16.0414 28.1609 15.776L28.36 15.7096C28.3379 15.4663 28.3821 15.1234 28.4927 14.681C28.6033 14.2165 28.8024 13.9511 29.0899 13.8847C29.1342 13.7077 29.1563 13.5418 29.1563 13.387C29.1784 13.21 29.2227 13.0441 29.289 12.8893L29.5545 12.8229L29.4217 12.6902C29.5545 12.5575 29.7425 12.4911 29.9858 12.4911L30.1517 12.7566L30.3508 12.6902L30.6494 12.8229C30.583 12.9335 30.583 13.0663 30.6494 13.2211L30.9148 13.1547L31.0807 13.4202C31.0365 13.4644 31.0144 13.5418 31.0144 13.6524C31.0144 13.763 31.0365 13.9068 31.0807 14.0838L30.7821 14.2497C30.76 14.2718 30.7821 14.2939 30.8485 14.316C30.937 14.3382 30.9923 14.3603 31.0144 14.3824C30.9701 14.67 30.9148 14.9686 30.8485 15.2783C30.8042 15.5879 30.7158 15.8644 30.583 16.1078L30.6494 17.0036L30.4171 17.3354C30.5499 17.4681 30.6162 17.7115 30.6162 18.0654C30.6162 18.2202 30.5941 18.3861 30.5499 18.5631C30.5056 18.74 30.4171 18.917 30.2844 19.094H30.4835L30.5167 19.4921C30.4724 19.5585 30.4503 19.6691 30.4503 19.8239C30.4503 19.9788 30.4724 20.1557 30.5167 20.3548C30.5609 20.5318 30.583 20.7087 30.583 20.8857C30.583 20.952 30.572 21.0184 30.5499 21.0848C30.5499 21.1511 30.5388 21.2175 30.5167 21.2838C30.583 21.2617 30.6494 21.3834 30.7158 21.6488C30.7821 21.9143 30.8264 22.1023 30.8485 22.2129H30.9148C30.937 22.1686 30.9591 22.1023 30.9812 22.0138C31.0254 21.9253 31.0807 21.9032 31.1471 21.9474L31.3462 21.0848L31.2798 21.1511L31.2135 21.0184L31.7443 19.8571L31.6116 19.7244C31.6116 19.6801 31.6337 19.6691 31.678 19.6912C31.7443 19.6912 31.7886 19.6801 31.8107 19.658L31.678 19.4921C31.7222 19.2267 31.8549 19.0276 32.0761 18.8949L31.9434 18.8285C32.054 18.4967 32.1757 18.1539 32.3084 17.7999C32.4411 17.4239 32.5185 17.07 32.5407 16.7382L32.9388 16.6055V16.5391L32.6734 16.3732L32.8725 15.8423C33.0494 15.776 33.2485 15.6764 33.4697 15.5437C33.6909 15.3889 33.8789 15.3667 34.0338 15.4773L34.1997 15.7096H34.3324C34.443 15.9087 34.5093 16.1078 34.5315 16.3068L34.3324 16.3732C34.5093 16.3953 34.631 16.4838 34.6974 16.6386C34.7637 16.7935 34.7969 16.9594 34.7969 17.1363C34.7969 17.2248 34.7858 17.3133 34.7637 17.4018C34.7637 17.4903 34.7527 17.5677 34.7305 17.634C34.819 17.8774 34.8411 18.0986 34.7969 18.2976L34.9296 18.8285L34.7305 18.8949C34.8411 18.9391 34.9075 19.0165 34.9296 19.1271C34.9517 19.2377 34.9628 19.3594 34.9628 19.4921C34.9628 19.6248 34.9517 19.7686 34.9296 19.9235C34.9075 20.0783 34.8964 20.2221 34.8964 20.3548C34.8964 20.576 34.9517 20.7308 35.0623 20.8193C35.0181 20.952 34.9739 21.0516 34.9296 21.1179C34.9075 21.1622 34.8964 21.2064 34.8964 21.2507C34.8964 21.2949 34.9739 21.3502 35.1287 21.4166H35.0623C35.1508 21.505 35.2172 21.6156 35.2614 21.7484C35.3278 21.859 35.3278 21.9696 35.2614 22.0802H35.5932C35.7923 21.9032 36.0577 21.8368 36.3895 21.8811L36.5223 21.8147L36.1905 21.6156C36.2347 21.6378 36.3121 21.6156 36.4227 21.5493C36.5333 21.4829 36.5997 21.4387 36.6218 21.4166C36.7103 21.1069 36.7877 20.8746 36.8541 20.7198C36.9204 20.5649 37.0974 20.4101 37.3849 20.2553L37.4513 19.7244C37.6946 19.4811 37.8384 19.3041 37.8826 19.1935C37.949 19.0608 37.9932 18.9281 38.0154 18.7953C38.0375 18.6626 38.1038 18.4746 38.2144 18.2313H38.3803L38.314 18.364C38.314 18.364 38.3361 18.364 38.3803 18.364C38.4246 18.3419 38.4246 18.3198 38.3803 18.2976C38.4467 18.187 38.4799 18.0875 38.4799 17.999C38.502 17.9105 38.5794 17.8552 38.7121 17.8331L38.8449 18.0986C38.7564 18.3861 38.6458 18.6737 38.5131 18.9612C38.3803 19.2267 38.2587 19.5032 38.1481 19.7907H37.8826L38.0817 19.9898C38.0375 20.0119 37.9379 20.1225 37.7831 20.3216C37.6504 20.4986 37.5177 20.6977 37.3849 20.9189C37.2743 21.1179 37.1969 21.2617 37.1527 21.3502L37.3186 21.6156C37.2301 21.682 37.1527 21.7594 37.0863 21.8479C37.0421 21.9364 36.9978 22.0359 36.9536 22.1465H36.6882L36.6218 22.5447H36.5886L36.5223 22.2792V22.7769H36.4891C36.467 22.7769 36.4117 22.7991 36.3232 22.8433C36.2347 22.8875 36.1683 22.9318 36.1241 22.976H36.1573L36.1905 23.0424C36.102 23.1309 35.9693 23.1972 35.7923 23.2415C35.6375 23.2857 35.4716 23.3078 35.2946 23.3078C35.0734 23.3078 34.8854 23.2525 34.7305 23.1419L34.9296 23.0424C34.9075 22.9981 34.8522 22.976 34.7637 22.976C34.6974 22.976 34.631 22.9871 34.5646 23.0092C34.4983 23.0313 34.443 23.0534 34.3987 23.0756C34.3766 22.965 34.2992 22.8765 34.1665 22.8101C34.0338 22.7216 33.9453 22.611 33.901 22.4783L34.1333 22.412L33.8347 22.3456C33.8126 22.235 33.7573 22.058 33.6688 21.8147C33.6024 21.5714 33.5471 21.3281 33.5029 21.0848C33.4586 20.8414 33.4586 20.6755 33.5029 20.5871C33.4144 20.5428 33.3702 20.4765 33.3702 20.388C33.3923 20.2774 33.4144 20.1889 33.4365 20.1225H33.2706L33.3702 19.4258C33.3038 19.5364 33.2706 19.5142 33.2706 19.3594C33.2706 19.2046 33.3038 19.1824 33.3702 19.293L33.0715 18.6294L33.2043 18.5631C33.0715 18.5188 32.9941 18.4304 32.972 18.2976C32.9499 18.1428 32.9167 18.0101 32.8725 17.8995C32.7397 18.0101 32.6513 18.1317 32.607 18.2645C32.5628 18.3972 32.4301 18.4746 32.2089 18.4967C32.1646 18.541 32.1757 18.5963 32.242 18.6626C32.3084 18.729 32.3637 18.74 32.4079 18.6958L32.2752 19.2267C32.231 19.2046 32.1978 19.2377 32.1757 19.3262C32.1536 19.4147 32.1425 19.47 32.1425 19.4921C32.1646 19.5142 32.1978 19.5253 32.242 19.5253C32.2863 19.5253 32.2973 19.5474 32.2752 19.5917C32.0761 19.8129 31.9434 20.1004 31.8771 20.4543L32.0761 20.5207C31.9655 20.6534 31.866 20.8857 31.7775 21.2175C31.7112 21.5493 31.6559 21.8921 31.6116 22.2461C31.5895 22.6 31.5674 22.8765 31.5453 23.0756L31.2135 23.2746L31.4789 23.341C31.501 23.6286 31.4236 23.894 31.2466 24.1373C31.0918 24.3585 30.8485 24.4691 30.5167 24.4691C30.4946 24.4249 30.4393 24.4138 30.3508 24.4359C30.2623 24.4581 30.2181 24.4691 30.2181 24.4691L30.1517 24.27L30.0853 24.4028C30.0632 24.2037 30.0079 24.082 29.9194 24.0378C29.8531 23.9714 29.7757 23.9161 29.6872 23.8719C29.6208 23.8055 29.5876 23.6728 29.5876 23.4737C29.5876 23.2968 29.6208 23.0645 29.6872 22.7769L29.4881 22.8433L29.5545 22.4783L29.289 22.412L29.3554 22.0138C29.2669 21.9253 29.2227 21.7484 29.2227 21.4829C29.2227 21.1954 29.2227 20.9963 29.2227 20.8857H29.1895C29.1231 20.8857 29.0899 20.8193 29.0899 20.6866C29.0899 20.576 29.101 20.4654 29.1231 20.3548C29.1674 20.2221 29.1784 20.1447 29.1563 20.1225L28.9572 19.9898L28.8909 19.0276L29.0236 18.7622L28.8245 17.634C28.8909 17.6783 28.9572 17.6783 29.0236 17.634C29.0899 17.5677 29.1121 17.5124 29.0899 17.4681C28.9351 17.4018 28.8577 17.2912 28.8577 17.1363C28.8577 17.0921 28.8687 17.0368 28.8909 16.9704C28.913 16.9041 28.9351 16.8488 28.9572 16.8045C28.9351 16.6718 28.9019 16.5391 28.8577 16.4064C28.8356 16.2515 28.8245 16.1078 28.8245 15.975L28.6254 15.8423C28.5369 15.8644 28.5259 15.9197 28.5922 16.0082C28.6586 16.0967 28.7139 16.1078 28.7581 16.0414L28.6918 16.3732C28.6254 16.3511 28.5701 16.3843 28.5259 16.4727C28.5038 16.5612 28.4927 16.6276 28.4927 16.6718L28.5591 16.6055L28.6254 16.7382C28.4042 17.0257 28.2273 17.4128 28.0945 17.8995C27.9839 18.364 27.8955 18.8506 27.8291 19.3594C27.7627 19.846 27.7074 20.2884 27.6632 20.6866C27.619 21.0626 27.5415 21.3281 27.4309 21.4829L27.3646 21.3834V21.5493C27.4309 21.5714 27.4641 21.6599 27.4641 21.8147C27.4641 22.0359 27.4088 22.3014 27.2982 22.611C27.2097 22.8986 27.1434 23.0977 27.0991 23.2083L27.2982 23.2746C27.2982 23.341 27.2872 23.4074 27.265 23.4737C27.265 23.5401 27.265 23.6064 27.265 23.6728C27.265 23.8719 27.2761 24.082 27.2982 24.3032C27.3203 24.5023 27.3314 24.7014 27.3314 24.9005C27.3314 25.0111 27.3203 25.1217 27.2982 25.2323C27.2982 25.3429 27.2761 25.4424 27.2319 25.5309L27.4973 26.1945L27.3646 26.5926L27.63 26.8581L27.7627 27.5217H27.3646ZM41.2724 14.1833C41.0733 14.1833 40.8521 14.1059 40.6088 13.9511L40.5093 13.9179H40.4429C40.4208 13.8958 40.3987 13.8847 40.3766 13.8847C40.3766 13.8405 40.3876 13.8073 40.4097 13.7852H40.2438L40.277 13.387C40.4097 13.387 40.4872 13.3538 40.5093 13.2875L40.4429 13.2543H40.5425V13.1547C40.5425 13.022 40.5756 12.9225 40.642 12.8561C40.7084 12.7676 40.7858 12.6792 40.8743 12.5907C40.9185 12.6128 40.9627 12.6239 41.007 12.6239C41.0733 12.6239 41.1176 12.646 41.1397 12.6902C41.1176 12.5575 41.1176 12.4358 41.1397 12.3252L41.2392 12.3584C41.2835 12.1815 41.383 12.0709 41.5379 12.0266C41.7148 11.9603 41.8697 11.8939 42.0024 11.8275L42.0356 12.0266L42.1019 11.9934V11.8939H42.2678C42.3121 11.7612 42.3895 11.6948 42.5001 11.6948L42.5333 11.8275C42.6217 11.7391 42.7213 11.6948 42.8319 11.6948C43.0088 11.7612 43.042 11.8718 42.9314 12.0266C42.8872 12.0487 42.8429 12.1151 42.7987 12.2257C42.7545 12.1151 42.6992 12.0487 42.6328 12.0266L42.5996 12.2589L42.5664 12.1262H42.5333L42.5996 12.3916C42.5333 12.4137 42.489 12.4469 42.4669 12.4911C42.4448 12.5354 42.4116 12.5796 42.3674 12.6239C42.3231 12.6681 42.2789 12.6792 42.2346 12.657C42.1904 12.6349 42.1462 12.657 42.1019 12.7234C42.1462 12.7013 42.2125 12.7013 42.301 12.7234C42.2346 12.7234 42.1904 12.7345 42.1683 12.7566L42.301 12.7898C42.2125 12.8782 42.1462 12.9888 42.1019 13.1216C42.0577 13.2322 42.0134 13.3428 41.9692 13.4534H41.8033V13.6524L41.9028 13.6856C41.8365 13.752 41.7591 13.7852 41.6706 13.7852L41.7038 13.9511C41.6816 13.9953 41.6263 14.0506 41.5379 14.117C41.4715 14.1612 41.383 14.1833 41.2724 14.1833ZM39.2153 24.2037C39.1047 24.2037 39.0272 24.1484 38.983 24.0378L38.8503 24.1373L38.7176 24.0378L38.8503 23.8719L38.7839 23.7392H38.7176V23.8719L38.5517 23.8387L38.4853 23.6396C38.4853 23.6396 38.4964 23.6396 38.5185 23.6396C38.5627 23.6175 38.5738 23.5954 38.5517 23.5733H38.3858C38.3858 23.529 38.3858 23.4848 38.3858 23.4405C38.4079 23.3742 38.4411 23.3299 38.4853 23.3078C38.3747 23.2193 38.3194 23.0092 38.3194 22.6774C38.3194 22.3235 38.3194 22.1023 38.3194 22.0138L38.3858 21.7152H38.5185L38.3858 21.1843C38.3858 21.1622 38.4189 21.1732 38.4853 21.2175C38.5517 21.2396 38.5848 21.2507 38.5848 21.2507V21.0848C38.5627 21.0405 38.5185 20.9963 38.4521 20.952C38.4079 20.8857 38.3858 20.8193 38.3858 20.753L38.4189 20.7198C38.5074 20.5207 38.5627 20.3106 38.5848 20.0894C38.6291 19.8682 38.6733 19.658 38.7176 19.4589L38.618 19.3926L38.6512 19.0608C38.6733 19.0165 38.6954 19.0165 38.7176 19.0608C38.7397 19.0829 38.7507 19.094 38.7507 19.094H38.8835C38.8613 19.0497 38.8282 19.0055 38.7839 18.9612C38.7618 18.8949 38.7507 18.8175 38.7507 18.729L38.8503 18.6294C38.806 18.6073 38.7839 18.552 38.7839 18.4635C38.7839 18.3751 38.795 18.2976 38.8171 18.2313C38.8392 18.1428 38.8613 18.0875 38.8835 18.0654L38.8503 17.9658C38.9609 17.9216 39.0051 17.8221 38.983 17.6672C38.983 17.4903 38.9941 17.3354 39.0162 17.2027C39.0604 17.0479 39.2042 16.9815 39.4475 17.0036C39.4254 16.9594 39.4033 16.9151 39.3812 16.8709C39.359 16.8267 39.3259 16.7935 39.2816 16.7714H39.2153V16.5391L39.5139 16.2073L39.4475 16.0746L39.5471 16.0082V15.975C39.5471 15.8644 39.5913 15.787 39.6798 15.7428C39.7683 15.6764 39.8567 15.6322 39.9452 15.6101L39.912 15.5105H40.0448L40.0779 15.6432L40.0448 15.6764H40.1443C40.1443 15.5879 40.1443 15.5437 40.1443 15.5437C40.1443 15.5437 40.2217 15.5326 40.3766 15.5105L40.4761 15.776C40.7858 15.8644 40.9849 15.9972 41.0733 16.1741C41.1839 16.3511 41.2835 16.5723 41.372 16.8377L41.4715 16.7714V16.8377C41.4715 17.0147 41.3941 17.1474 41.2392 17.2359L41.2061 17.2027C41.2282 17.2691 41.2392 17.3244 41.2392 17.3686C41.2392 17.4128 41.1839 17.4571 41.0733 17.5013C41.0512 17.634 41.018 17.7778 40.9738 17.9327C40.9296 18.0875 40.8853 18.2313 40.8411 18.364C40.8411 18.3198 40.819 18.3198 40.7747 18.364C40.7305 18.3861 40.7305 18.4193 40.7747 18.4635L40.642 18.5299H40.7415C40.6973 18.729 40.6199 18.9281 40.5093 19.1271C40.3987 19.3262 40.3544 19.5253 40.3766 19.7244H40.1775L40.2107 19.9566L40.277 19.9235C40.2549 19.9898 40.2328 20.0562 40.2107 20.1225C40.1885 20.1668 40.1775 20.2331 40.1775 20.3216H40.0779L40.1775 20.388H40.1443L40.1775 20.4543L40.0779 20.753H39.9452L40.0116 21.0184C39.9673 21.0626 39.901 21.0516 39.8125 20.9852C39.8125 21.1179 39.8678 21.2285 39.9784 21.317L39.8457 21.8811H39.713L39.7793 21.9806L39.8457 21.9143L39.7793 22.6774V22.7106H40.0116L40.0448 22.9097C40.1554 22.8654 40.277 22.8322 40.4097 22.8101C40.5425 22.788 40.6641 22.7548 40.7747 22.7106L40.8411 22.5779L41.0402 22.611V22.4783L40.9738 22.4451L41.2061 22.2792V22.3124L41.2392 22.2129L41.3388 22.2461C41.3388 22.1797 41.3609 22.1355 41.4051 22.1133C41.4494 22.0691 41.4826 22.0027 41.5047 21.9143L41.6374 22.0138L41.936 21.682C41.936 21.682 41.9028 21.6599 41.8365 21.6156L41.9028 21.4497L42.1019 21.3834C42.0798 21.3613 42.0687 21.3281 42.0687 21.2838C42.0687 21.2396 42.0909 21.2064 42.1351 21.1843C42.2015 21.1401 42.2457 21.0848 42.2678 21.0184C42.2457 21.0184 42.2346 21.0073 42.2346 20.9852C42.2346 20.941 42.2457 20.9189 42.2678 20.9189L42.5001 20.8857C42.5222 20.7972 42.5333 20.7198 42.5333 20.6534C42.5333 20.5649 42.5443 20.4765 42.5664 20.388C42.5886 20.3659 42.5996 20.3769 42.5996 20.4212C42.6217 20.4433 42.6328 20.4654 42.6328 20.4875C42.677 20.5318 42.7213 20.5318 42.7655 20.4875V20.388L42.8651 20.3548L42.666 20.2884L42.8319 20.2553H42.7655V20.1225C42.8761 20.0562 42.9535 19.9456 42.9978 19.7907C43.0641 19.6138 43.1084 19.47 43.1305 19.3594L43.23 19.3926V19.1935L43.3296 19.1603C43.2632 19.1603 43.2522 19.1382 43.2964 19.094H43.4291C43.407 18.8506 43.4623 18.6516 43.595 18.4967C43.7277 18.3198 43.8162 18.1317 43.8605 17.9327H43.9932V17.7999H44.2918C44.2918 17.9327 44.2697 17.999 44.2254 17.999C44.2033 17.999 44.1701 18.0433 44.1259 18.1317L44.2586 18.4635L44.1923 18.5631L44.0595 18.4967L44.1259 18.6958L44.0264 18.6294L44.0595 18.8949L43.9932 18.8617C43.9711 18.9502 43.9158 19.1382 43.8273 19.4258C43.7609 19.6912 43.6724 19.8571 43.5618 19.9235L43.4291 19.8903C43.4291 19.9345 43.4402 19.9788 43.4623 20.023C43.4844 20.0672 43.5065 20.1115 43.5287 20.1557L43.3628 20.4875L43.23 20.4212C43.2522 20.6202 43.1858 20.8414 43.031 21.0848C42.8761 21.306 42.7434 21.505 42.6328 21.682H42.4337C42.4337 21.7705 42.4227 21.8479 42.4005 21.9143C42.3784 21.9806 42.3674 22.0691 42.3674 22.1797L42.1351 22.2792L42.2678 22.3124L42.0356 22.412V22.4451C42.0356 22.5336 42.0024 22.6221 41.936 22.7106C41.8918 22.7769 41.8586 22.8322 41.8365 22.8765L41.6374 22.8433V23.0756H41.4715C41.4715 23.1862 41.4273 23.2746 41.3388 23.341C41.3388 23.3189 41.3167 23.3078 41.2724 23.3078C41.2503 23.2857 41.2282 23.2857 41.2061 23.3078C41.2503 23.3521 41.2503 23.4074 41.2061 23.4737C41.1618 23.518 41.1176 23.5511 41.0733 23.5733L40.9738 23.5401V23.6728C40.7747 23.8719 40.4982 23.9935 40.1443 24.0378L40.1111 24.1041L39.9452 24.1705V24.0378C39.8125 24.0599 39.713 24.0931 39.6466 24.1373C39.6024 24.1816 39.4918 24.2037 39.3148 24.2037L39.2816 24.1041H39.2484L39.2153 24.2037ZM39.9452 20.4212L40.0779 20.4875L40.1443 20.388L39.9452 20.4212ZM50.1058 24.8009C49.8846 25.1327 49.5196 25.3318 49.0108 25.3982C48.5021 25.4866 48.0707 25.5309 47.7168 25.5309L47.7832 25.4313L47.6505 25.3982C47.5841 25.4424 47.4846 25.4645 47.3518 25.4645C47.1085 25.4645 46.8541 25.3429 46.5887 25.0995C46.3454 24.8562 46.1131 24.5908 45.8919 24.3032C45.6928 23.9935 45.5269 23.7723 45.3942 23.6396L45.5933 23.341L45.1951 23.0424L45.0292 21.9806L44.797 21.7815C44.7749 21.2507 44.7196 20.7308 44.6311 20.2221C44.5426 19.6912 44.4984 19.1603 44.4984 18.6294C44.4984 18.4082 44.5094 18.1981 44.5315 17.999C44.5537 17.7778 44.5979 17.5566 44.6643 17.3354L44.4984 17.2691L44.5979 16.705L44.4652 16.5391C44.5315 16.34 44.5647 16.1188 44.5647 15.8755C44.5647 15.7649 44.5537 15.6764 44.5315 15.6101C44.5315 15.5216 44.5205 15.4331 44.4984 15.3446L44.6974 15.2451H44.4984C44.4984 14.7584 44.5979 14.2718 44.797 13.7852L44.6643 13.752C44.6421 13.6635 44.62 13.5861 44.5979 13.5197C44.5979 13.4534 44.5979 13.3759 44.5979 13.2875C44.5979 13.0441 44.6311 12.8229 44.6974 12.6239C44.7859 12.4027 44.8855 12.1925 44.9961 11.9934C44.9297 11.7944 44.8965 11.5068 44.8965 11.1308C44.8965 10.799 44.9186 10.4561 44.9629 10.1022C45.0292 9.74826 45.1177 9.49388 45.2283 9.33904C45.2062 9.36116 45.1841 9.37222 45.162 9.37222C45.1177 9.37222 45.0735 9.33904 45.0292 9.27268C44.985 9.20632 44.9739 9.16208 44.9961 9.13996L43.5693 9.60448L43.4366 9.4054L43.2043 9.67084C42.9831 9.69296 42.6845 9.71508 42.3085 9.7372C41.9103 9.75932 41.5343 9.78144 41.1804 9.80356C40.8043 9.82568 40.5389 9.86992 40.384 9.93628L40.0522 9.80356L39.8532 9.93628H39.3886L39.0568 9.47176L39.2559 9.27268L38.7914 8.94088L38.6587 8.54272H38.7914C38.8135 8.56484 38.8578 8.60908 38.9241 8.67544C38.9684 8.7418 39.0126 8.77498 39.0568 8.77498C39.1453 8.77498 39.1896 8.69756 39.1896 8.54272C39.632 8.54272 40.0633 8.54272 40.4836 8.54272C40.8817 8.54272 41.291 8.58696 41.7112 8.67544L41.7776 8.47636L43.5693 8.41C43.6136 8.45424 43.5914 8.48742 43.503 8.50954C43.4366 8.53166 43.4034 8.55378 43.4034 8.5759C43.4034 8.59802 43.4255 8.62014 43.4698 8.64226C43.514 8.64226 43.5472 8.64226 43.5693 8.64226C43.6799 8.64226 43.7573 8.59802 43.8016 8.50954C43.8679 8.42106 43.8126 8.34364 43.6357 8.27728L45.4274 8.14456C45.538 8.0782 45.6044 8.01184 45.6265 7.94548C45.6707 7.857 45.6044 7.81276 45.4274 7.81276C45.4716 7.32612 45.5159 6.88372 45.5601 6.48556C45.6265 6.0874 45.7592 5.67818 45.9583 5.2579C45.9362 5.21366 45.9251 5.15836 45.9251 5.092C45.9251 5.02564 45.9251 4.97034 45.9251 4.9261C45.9251 4.68278 45.9583 4.43946 46.0246 4.19614C46.091 3.9307 46.1684 3.68738 46.2569 3.46618C46.2127 3.44406 46.1905 3.41088 46.1905 3.36664C46.1905 3.30028 46.2237 3.24498 46.2901 3.20074C46.3564 3.13438 46.4117 3.09014 46.456 3.06802L46.3233 2.66986L46.3896 2.33806H46.5223V1.87354H46.6551V1.67446C46.6551 1.56386 46.6661 1.45326 46.6882 1.34266C46.7104 1.20994 46.7767 1.1657 46.8873 1.20994L46.8541 0.679058L47.0532 0.612699L46.9869 0.546338L47.3187 0.347259L48.7122 0.878138V0.911319C48.7122 0.977679 48.7454 1.03298 48.8118 1.07722C48.8781 1.12146 48.9334 1.12146 48.9777 1.07722L49.5749 1.80718L49.6413 2.2717L49.9067 2.47078C50.1279 3.13438 50.2385 3.85328 50.2385 4.62748C50.2385 5.11412 50.2053 5.61182 50.139 6.12058C50.0726 6.60722 50.0173 7.0828 49.9731 7.54732H50.0726C50.1611 7.54732 50.2385 7.55838 50.3049 7.5805C50.3933 7.5805 50.4818 7.59156 50.5703 7.61368C50.6588 7.48096 50.8357 7.39248 51.1012 7.34824C51.3666 7.28188 51.6431 7.23764 51.9307 7.21552C52.2404 7.1934 52.4505 7.1934 52.5611 7.21552L52.8597 7.01644L53.4238 7.04962L53.5897 6.88372C53.7666 6.88372 53.9878 6.87266 54.2533 6.85054C54.5408 6.8063 54.751 6.72888 54.8837 6.61828L55.4478 6.71782L55.5805 6.48556C55.7796 6.50768 55.9897 6.49662 56.2109 6.45238C56.4542 6.38602 56.6644 6.3086 56.8413 6.22012L57.0404 6.28648L58.0358 5.95468L58.434 6.0874L58.633 5.78878C58.8985 5.67818 59.186 5.62288 59.4957 5.62288C59.7833 5.62288 60.0045 5.66712 60.1593 5.7556C60.1814 5.71136 60.1814 5.66712 60.1593 5.62288C60.1372 5.55652 60.1151 5.50122 60.093 5.45698L60.8893 5.39062C60.9335 5.45698 60.9114 5.51228 60.8229 5.55652C60.6902 5.645 60.4248 5.76666 60.0266 5.9215C59.6284 6.07634 59.2192 6.20906 58.7989 6.31966C58.4008 6.43026 58.1243 6.46344 57.9694 6.4192V6.61828C57.7261 6.6404 57.3833 6.72888 56.9409 6.88372C56.4985 7.03856 56.0671 7.17128 55.6468 7.28188C55.2266 7.39248 54.939 7.4146 54.7842 7.34824V7.48096L54.4524 7.54732L53.7224 7.61368L53.6229 7.48096C53.1583 7.83488 52.5169 8.08926 51.6984 8.2441C50.9021 8.37682 50.2164 8.47636 49.6413 8.54272V9.13996C49.6191 9.16208 49.586 9.17314 49.5417 9.17314C49.4754 9.17314 49.409 9.17314 49.3426 9.17314C49.2984 9.15102 49.2652 9.16208 49.2431 9.20632C49.221 9.22844 49.2099 9.26162 49.2099 9.30586C49.2099 9.39434 49.2431 9.47176 49.3095 9.53812C49.3979 9.60448 49.4643 9.64872 49.5085 9.67084L49.2431 10.5335H48.9777L49.1104 10.9317L48.7786 10.998L49.044 11.1308L48.8449 11.1971C48.8007 11.3077 48.7675 11.4515 48.7454 11.6285C48.7454 11.8054 48.7233 11.9492 48.679 12.0598C48.6569 12.1704 48.5795 12.1815 48.4468 12.093L48.3141 12.3916L48.5131 12.458C48.3141 12.5243 48.2145 12.6681 48.2145 12.8893C48.2145 12.9778 48.2477 13.0773 48.3141 13.1879L48.0486 13.8847C48.0265 13.8626 48.0044 13.8515 47.9823 13.8515C47.9159 13.8515 47.8495 13.8847 47.7832 13.9511C47.7389 14.0174 47.7168 14.0727 47.7168 14.117L47.9159 14.1833L47.385 14.681L47.6505 14.7142L47.4514 14.8469L47.5177 15.0128C47.2744 15.3889 47.0643 15.8534 46.8873 16.4064C46.7104 16.9373 46.467 17.3575 46.1574 17.6672C46.2016 17.8884 46.2348 18.1539 46.2569 18.4635C46.279 18.7511 46.2901 19.0497 46.2901 19.3594C46.2901 19.5806 46.279 19.8018 46.2569 20.023C46.2348 20.2221 46.1905 20.388 46.1242 20.5207C46.2569 20.6755 46.3233 20.8636 46.3233 21.0848C46.3233 21.2838 46.268 21.4497 46.1574 21.5825L46.3896 21.6488V22.3788L46.1574 22.4783L46.5223 22.611C46.7657 22.9428 46.9094 23.3189 46.9537 23.7392C46.9979 24.1373 47.1417 24.5134 47.385 24.8673C47.4956 24.7124 47.6726 24.7235 47.9159 24.9005C48.1813 25.0774 48.4247 25.1327 48.6459 25.0664C48.8892 24.9779 49.1214 24.8673 49.3426 24.7346C49.5638 24.6018 49.8182 24.5244 50.1058 24.5023C50.1943 24.5908 50.1943 24.6903 50.1058 24.8009ZM47.7832 7.97866C47.8717 7.86806 47.9712 7.81276 48.0818 7.81276C48.1482 7.81276 48.2035 7.82382 48.2477 7.84594C48.3141 7.84594 48.3804 7.857 48.4468 7.87912C48.4689 7.76852 48.5131 7.72428 48.5795 7.7464C48.668 7.7464 48.7565 7.7464 48.8449 7.7464C48.9113 7.70216 48.9998 7.70216 49.1104 7.7464V7.21552C49.221 7.06068 49.2873 6.77312 49.3095 6.35284C49.3316 5.93256 49.3426 5.51228 49.3426 5.092C49.3426 4.82656 49.3316 4.58324 49.3095 4.36204C49.3095 4.14084 49.3095 3.986 49.3095 3.89752C49.4643 3.8754 49.5307 3.85328 49.5085 3.83116C49.5085 3.78692 49.5085 3.68738 49.5085 3.53254L49.4422 3.46618C49.3979 3.51042 49.3316 3.55466 49.2431 3.5989C49.221 3.39982 49.1878 3.20074 49.1436 3.00166C49.0993 2.78046 49.0219 2.59244 48.9113 2.4376C48.8007 2.57032 48.7122 2.64774 48.6459 2.66986C48.5795 2.69198 48.5353 2.8247 48.5131 3.06802C48.5795 3.1565 48.6127 3.23392 48.6127 3.30028C48.6127 3.41088 48.5684 3.51042 48.48 3.5989C48.3915 3.68738 48.3141 3.78692 48.2477 3.89752C48.2698 3.986 48.2809 4.06342 48.2809 4.12978C48.303 4.19614 48.3141 4.25144 48.3141 4.29568C48.3141 4.38416 48.303 4.47264 48.2809 4.56112C48.2809 4.6496 48.2698 4.74914 48.2477 4.85974C48.1592 4.88186 48.115 4.89292 48.115 4.89292C48.115 4.8708 48.0929 4.91504 48.0486 5.02564C48.115 5.092 48.1482 5.15836 48.1482 5.22472C48.1482 5.29108 48.1371 5.35744 48.115 5.4238C48.0929 5.46804 48.0707 5.52334 48.0486 5.5897C47.9601 5.61182 47.8938 5.645 47.8495 5.68924C47.9601 5.71136 48.0044 5.72242 47.9823 5.72242C47.9823 5.7003 48.0044 5.72242 48.0486 5.78878C48.0044 5.78878 47.9712 5.78878 47.9491 5.78878C47.927 5.76666 47.8938 5.76666 47.8495 5.78878C47.9159 5.85514 47.9491 5.94362 47.9491 6.05422C47.9491 6.18694 47.9048 6.31966 47.8164 6.45238C47.7279 6.5851 47.6505 6.70676 47.5841 6.81736H47.7832C47.7611 6.9722 47.7279 7.07174 47.6836 7.11598C47.6394 7.16022 47.5841 7.23764 47.5177 7.34824C47.6283 7.37036 47.6726 7.38142 47.6505 7.38142C47.6505 7.3593 47.6726 7.39248 47.7168 7.48096C47.6947 7.5252 47.6726 7.59156 47.6505 7.68004C47.6283 7.7464 47.6062 7.81276 47.5841 7.87912L47.7832 7.97866ZM46.456 15.411C46.4781 15.4331 46.5002 15.4331 46.5223 15.411C46.5445 15.3667 46.5445 15.3446 46.5223 15.3446C46.5666 15.2783 46.5887 15.2119 46.5887 15.1455C46.6108 15.0571 46.6329 14.9796 46.6551 14.9133C46.8099 14.9133 46.8984 14.9243 46.9205 14.9465C46.9426 14.9686 46.9647 14.8912 46.9869 14.7142C46.9426 14.67 46.9205 14.6147 46.9205 14.5483C46.9205 14.4819 46.9316 14.4156 46.9537 14.3492C46.9979 14.2829 47.009 14.2054 46.9869 14.117C47.0753 14.117 47.1417 14.1059 47.1859 14.0838C47.1196 14.0395 47.0864 14.0285 47.0864 14.0506C47.1085 14.0506 47.0975 14.0064 47.0532 13.9179C47.2081 13.8515 47.3076 13.8294 47.3518 13.8515C47.3961 13.8515 47.4293 13.752 47.4514 13.5529C47.4514 13.4423 47.4293 13.3538 47.385 13.2875C47.3629 13.2211 47.3629 13.1437 47.385 13.0552C47.4071 12.9004 47.4624 12.7566 47.5509 12.6239C47.6394 12.4911 47.6947 12.3474 47.7168 12.1925C47.8938 12.1483 47.9823 12.0709 47.9823 11.9603C47.9823 11.8497 48.0265 11.728 48.115 11.5953C48.0265 11.551 47.9933 11.5289 48.0154 11.5289C48.0376 11.5289 48.0265 11.4847 47.9823 11.3962H48.1813V11.2303C48.1813 11.0533 48.2035 10.9759 48.2477 10.998C48.2919 11.0202 48.3362 10.9538 48.3804 10.799C48.2919 10.6662 48.2698 10.5335 48.3141 10.4008L48.5131 10.3344C48.5131 10.2902 48.5021 10.246 48.48 10.2017C48.48 10.1354 48.48 10.0911 48.48 10.069C48.48 9.8478 48.5131 9.69296 48.5795 9.60448L48.8449 9.47176C48.8892 9.42752 48.9002 9.31692 48.8781 9.13996C48.856 8.963 48.8449 8.83028 48.8449 8.7418L48.7786 8.67544C48.668 8.76392 48.5684 8.80816 48.48 8.80816C48.4578 8.80816 48.4136 8.80816 48.3472 8.80816C48.303 8.78604 48.2477 8.76392 48.1813 8.7418C48.1813 8.78604 48.1813 8.81922 48.1813 8.84134C48.2035 8.86346 48.2035 8.89664 48.1813 8.94088C48.0707 8.89664 47.9712 8.87452 47.8827 8.87452C47.8164 8.87452 47.7168 8.87452 47.5841 8.87452C47.5399 8.963 47.4735 9.04042 47.385 9.10678C47.3187 9.15102 47.2523 9.20632 47.1859 9.27268C47.2302 9.36116 47.2523 9.47176 47.2523 9.60448C47.2523 9.80356 47.2191 10.0358 47.1528 10.3013C47.0864 10.5446 47.0311 10.7326 46.9869 10.8653C46.9426 10.8874 46.9094 10.8985 46.8873 10.8985C46.8652 10.8985 46.832 10.9096 46.7878 10.9317H46.9869C46.9647 11.2192 46.8984 11.5842 46.7878 12.0266C46.6772 12.4469 46.6551 12.7787 46.7214 13.022C46.5887 13.1326 46.5223 13.2322 46.5223 13.3206C46.5223 13.3649 46.5334 13.4202 46.5555 13.4865C46.5998 13.5529 46.6329 13.6414 46.6551 13.752L46.456 13.7852L46.5887 13.9179C46.5445 14.0064 46.5223 14.1723 46.5223 14.4156C46.5223 14.6589 46.5223 14.8248 46.5223 14.9133L46.2569 15.046H46.456V15.411ZM57.817 23.2083H57.087L57.0207 23.0092C56.9101 23.0092 56.7884 23.0203 56.6557 23.0424C56.523 23.0424 56.4013 23.0313 56.2907 23.0092C56.1801 22.7438 56.0253 22.5336 55.8262 22.3788C55.6492 22.2018 55.5386 21.9474 55.4944 21.6156L55.6271 21.682C55.5165 21.3944 55.4391 21.1069 55.3949 20.8193C55.3506 20.5318 55.3174 20.2442 55.2953 19.9566C55.229 19.8903 55.1847 19.8129 55.1626 19.7244C55.1626 19.6138 55.1626 19.5142 55.1626 19.4258C55.1626 19.4036 55.1515 19.3926 55.1294 19.3926C55.1294 19.3926 55.1294 19.3815 55.1294 19.3594C55.1294 19.2709 55.1626 19.1714 55.229 19.0608C55.2953 18.9281 55.2953 18.7843 55.229 18.6294H55.0962C55.0962 18.5631 55.0852 18.4635 55.0631 18.3308C55.0631 18.176 55.0631 18.0211 55.0631 17.8663C55.0631 17.6893 55.0741 17.5124 55.0962 17.3354C55.1184 17.1363 55.1405 16.9926 55.1626 16.9041L55.3617 16.7714V16.7382C55.3617 16.6497 55.3064 16.5833 55.1958 16.5391C55.1073 16.4949 55.0962 16.3953 55.1626 16.2405C55.2068 16.152 55.229 15.9861 55.229 15.7428C55.2511 15.4995 55.2621 15.2672 55.2621 15.046C55.2621 14.9133 55.2621 14.7916 55.2621 14.681C55.2621 14.5704 55.2511 14.493 55.229 14.4488C54.9635 14.5151 54.687 14.493 54.3995 14.3824C54.134 14.2497 53.8796 14.1612 53.6363 14.117C53.6142 14.2718 53.5589 14.3713 53.4704 14.4156C53.3819 14.4377 53.2824 14.493 53.1718 14.5815H53.3045L53.2382 14.9796H53.3045L53.3709 15.1787C53.2824 15.2451 53.1939 15.3114 53.1054 15.3778C53.017 15.4442 53.0391 15.5326 53.1718 15.6432L52.9727 15.9087L53.0391 16.0414C52.9727 16.152 52.9064 16.2405 52.84 16.3068C52.7958 16.3511 52.7736 16.4174 52.7736 16.5059C52.7736 16.6165 52.7958 16.705 52.84 16.7714C52.8179 16.7935 52.7736 16.7935 52.7073 16.7714C52.663 16.7271 52.6409 16.6829 52.6409 16.6386C52.6188 16.7935 52.5967 16.9373 52.5746 17.07C52.5524 17.2027 52.5524 17.3465 52.5746 17.5013L52.3755 17.5677L52.4418 17.7004L52.0437 17.9658C52.11 18.1649 52.1432 18.2976 52.1432 18.364C52.1432 18.4746 52.11 18.6294 52.0437 18.8285L51.7119 18.8949L51.8446 19.1603L51.5792 19.3594L51.6455 19.5585C51.5792 19.7133 51.5128 19.846 51.4464 19.9566H51.3137L51.2474 19.6912H51.181V19.8239L51.2474 20.0894C51.2252 20.1115 51.181 20.1336 51.1146 20.1557C51.0483 20.1557 51.0262 20.1778 51.0483 20.2221L51.2474 20.2884C51.1146 20.3106 51.0372 20.3437 51.0151 20.388C51.0151 20.4322 50.9598 20.4654 50.8492 20.4875C50.8492 20.3769 50.8271 20.2995 50.7828 20.2553C50.7386 20.1889 50.6944 20.1115 50.6501 20.023C50.6944 19.9788 50.7607 19.8571 50.8492 19.658C50.9598 19.4589 51.0483 19.2488 51.1146 19.0276C51.2031 18.7843 51.2474 18.6294 51.2474 18.5631L51.5128 18.4304V17.9658H51.7119L51.5792 17.8663C51.6898 17.8221 51.7672 17.6562 51.8114 17.3686C51.8557 17.081 51.9552 16.8598 52.11 16.705L52.1764 16.9041C52.1764 16.1741 52.3755 15.5326 52.7736 14.9796L52.6409 14.8469C52.7515 14.7363 52.8289 14.5704 52.8732 14.3492C52.9174 14.128 52.9506 13.94 52.9727 13.7852C52.7736 13.7188 52.6852 13.6414 52.7073 13.5529C52.7294 13.4644 52.7073 13.3428 52.6409 13.1879L52.5746 13.2543C52.4197 13.0331 52.3423 12.834 52.3423 12.657C52.3423 12.5464 52.3644 12.4358 52.4087 12.3252C52.4529 12.1925 52.4971 12.0487 52.5414 11.8939C52.475 11.7833 52.4418 11.6616 52.4418 11.5289C52.4418 11.3962 52.464 11.2635 52.5082 11.1308H52.6409L52.7073 10.5999C52.7515 10.5556 52.7847 10.5446 52.8068 10.5667C52.8289 10.5667 52.8621 10.5335 52.9064 10.4672V10.3676C53.1276 9.74826 53.3156 9.41646 53.4704 9.37222C53.6253 9.32798 53.7248 9.27268 53.769 9.20632C53.7912 9.22844 53.8354 9.2395 53.9018 9.2395C53.946 9.2395 53.9792 9.22844 54.0013 9.20632C54.0455 9.16208 54.1119 9.1289 54.2004 9.10678L54.2999 9.0736C54.3442 9.05148 54.3442 9.08466 54.2999 9.17314C54.2778 9.2395 54.2778 9.27268 54.2999 9.27268L54.4326 9.0736L54.6317 9.33904C54.5432 9.44964 54.499 9.58236 54.499 9.7372H54.6981L54.5654 10.5667L54.3663 10.5999C54.4769 10.6441 54.5322 10.7105 54.5322 10.799C54.5322 10.8874 54.499 10.9759 54.4326 11.0644C54.3663 11.1529 54.2999 11.2192 54.2336 11.2635L54.3663 11.3962L54.0345 11.4626V11.5289L54.2999 11.5953H54.1672L54.0345 11.728L53.9018 12.3916C53.8354 12.3695 53.8133 12.4137 53.8354 12.5243C53.8796 12.6349 53.8133 12.834 53.6363 13.1216V13.2543L53.7027 13.387C53.7469 13.4976 53.8465 13.5418 54.0013 13.5197C54.1783 13.4976 54.322 13.4976 54.4326 13.5197C54.8087 13.1437 55.1184 12.834 55.3617 12.5907C55.605 12.3474 55.8704 12.1704 56.158 12.0598C56.4677 11.9271 56.9101 11.8607 57.4852 11.8607V11.8939C57.4852 11.9381 57.4741 11.9934 57.452 12.0598C57.4299 12.104 57.4188 12.1483 57.4188 12.1925H57.817V12.3252L57.6179 12.3916C57.64 12.4358 57.6511 12.4911 57.6511 12.5575C57.6511 12.6239 57.6622 12.6792 57.6843 12.7234L57.4852 12.7898C57.5294 12.834 57.5516 12.9004 57.5516 12.9888C57.5516 13.0552 57.5294 13.1216 57.4852 13.1879C57.4631 13.2543 57.4631 13.3206 57.4852 13.387L57.2861 13.4534C57.3967 13.5418 57.441 13.6193 57.4188 13.6856C57.4188 13.752 57.4188 13.8626 57.4188 14.0174L57.2198 14.0506C57.264 14.117 57.3082 14.2386 57.3525 14.4156L57.087 14.4488V14.6478H57.2861V15.046L57.087 15.1124L57.2198 15.2451L57.0207 15.3114C57.0428 15.3336 57.0981 15.3778 57.1866 15.4442C57.2751 15.4884 57.264 15.5105 57.1534 15.5105C57.087 15.5769 57.076 15.6101 57.1202 15.6101C57.1645 15.6101 57.1976 15.6654 57.2198 15.776L56.9543 15.975C57.1092 16.0193 57.1755 16.0856 57.1534 16.1741C57.1534 16.2626 57.1534 16.3732 57.1534 16.5059L56.888 16.5723C57.0428 16.6608 57.1202 16.7603 57.1202 16.8709C57.1202 16.9815 57.087 17.1032 57.0207 17.2359C56.9543 17.3465 56.9101 17.4571 56.888 17.5677C56.9543 17.5677 56.9875 17.623 56.9875 17.7336C57.0096 17.8221 57.0207 17.8774 57.0207 17.8995C57.1092 17.988 57.1534 18.1207 57.1534 18.2976H56.888C56.9101 18.3419 56.9543 18.3861 57.0207 18.4304C57.1092 18.4525 57.1755 18.4746 57.2198 18.4967C57.2198 18.6073 57.2198 18.729 57.2198 18.8617C57.2419 18.9944 57.2529 19.1161 57.2529 19.2267C57.2529 19.4036 57.2308 19.5806 57.1866 19.7576C57.1423 19.9345 57.0649 20.1115 56.9543 20.2884H57.4188C57.4188 20.4433 57.452 20.6092 57.5184 20.7861C57.6069 20.941 57.6843 21.0848 57.7506 21.2175L57.5516 21.3502C57.6622 21.3502 57.7285 21.3613 57.7506 21.3834C57.7949 21.4055 57.8612 21.4497 57.9497 21.5161L57.7506 21.682C57.8612 21.682 57.9497 21.6931 58.0161 21.7152C58.0824 21.7152 58.1709 21.7041 58.2815 21.682L58.2152 21.8811H58.4142V21.682C58.4585 21.682 58.5359 21.6931 58.6465 21.7152C58.7571 21.7152 58.8124 21.682 58.8124 21.6156C58.7239 21.6156 58.6686 21.6046 58.6465 21.5825C58.6244 21.5603 58.6576 21.5493 58.746 21.5493C58.9894 21.1732 59.2548 20.8304 59.5424 20.5207C59.8299 20.211 60.029 19.8239 60.1396 19.3594L60.4714 19.4258C60.4272 19.2267 60.4382 18.9834 60.5046 18.6958C60.5931 18.4082 60.7258 18.1539 60.9027 17.9327C61.1018 17.7115 61.312 17.5898 61.5332 17.5677C61.5332 17.5677 61.5442 17.5787 61.5663 17.6009C61.6106 17.623 61.6327 17.6672 61.6327 17.7336C61.6327 17.7999 61.5995 17.8995 61.5332 18.0322C61.4668 18.0543 61.4226 18.0764 61.4004 18.0986C61.3783 18.1207 61.3451 18.1539 61.3009 18.1981C61.3009 18.2645 61.3009 18.3308 61.3009 18.3972C61.3009 18.4635 61.312 18.5188 61.3341 18.5631L61.135 18.6294L61.2014 18.7622C61.1129 18.8506 61.0576 18.8838 61.0355 18.8617C61.0355 18.8396 61.0244 18.917 61.0023 19.094C60.9802 19.5364 60.8143 19.9566 60.5046 20.3548C60.1949 20.753 59.9626 21.0848 59.8078 21.3502V21.5493C59.7193 21.7041 59.5866 21.8147 59.4096 21.8811V22.1465C59.3433 22.1686 59.2659 22.1908 59.1774 22.2129C59.111 22.235 59.1221 22.2792 59.2106 22.3456C59.0336 22.3456 58.9009 22.3788 58.8124 22.4451C58.746 22.4894 58.6576 22.5668 58.547 22.6774L58.6797 22.8101C58.5912 22.8322 58.4917 22.8544 58.3811 22.8765C58.2926 22.8765 58.193 22.8765 58.0824 22.8765L57.817 23.2083ZM61.6863 40.3623C61.6863 40.1633 61.7416 39.8978 61.8522 39.566C61.9628 39.2342 62.0955 38.9024 62.2504 38.5706C62.4052 38.2609 62.549 38.0508 62.6817 37.9402L62.549 37.8407C62.6817 37.6858 62.8144 37.4646 62.9472 37.1771C63.0799 36.9116 63.1241 36.6683 63.0799 36.4471H63.4117L63.279 36.0158C63.4117 35.8609 63.5002 35.684 63.5444 35.4849C63.6108 35.3079 63.655 35.131 63.6771 34.954C63.7214 34.9319 63.7988 34.8876 63.9094 34.8213C64.02 34.777 64.0753 34.7439 64.0753 34.7217C64.0753 34.6775 63.9868 34.6664 63.8098 34.6886C63.8762 34.6443 63.9536 34.5227 64.0421 34.3236C64.1306 34.1245 64.1969 33.9254 64.2412 33.7263C64.3075 33.5494 64.3186 33.4498 64.2744 33.4277C64.3628 33.2065 64.4513 32.9964 64.5398 32.7973C64.6283 32.5982 64.6946 32.3881 64.7389 32.1669L64.9048 32.2996C64.9269 32.2996 64.9269 32.2443 64.9048 32.1337C64.9048 32.0452 64.8716 32.012 64.8052 32.0342L65.137 31.5696C65.0928 31.4812 65.0707 31.4037 65.0707 31.3374C65.0707 31.2268 65.0928 31.1272 65.137 31.0388H65.2698L65.3361 30.5079L65.7011 30.1097L65.4357 30.0765C65.6126 29.8332 65.7011 29.6341 65.7011 29.4793C65.7232 29.3245 65.7453 29.1696 65.7675 29.0148C65.8117 28.8599 65.9665 28.694 66.232 28.5171C66.232 28.4507 66.2209 28.3844 66.1988 28.318C66.1988 28.2516 66.1988 28.1742 66.1988 28.0857C66.1988 27.7982 66.232 27.5106 66.2983 27.2231C66.3868 26.9355 66.5417 26.7364 66.7629 26.6258L66.796 25.929L66.8292 25.6636L66.5638 25.5972V25.8627L66.1324 26.1281V26.3604C65.8891 26.6701 65.5684 26.847 65.1702 26.8913V27.0903L64.8716 27.1899L65.0043 27.3558H64.9048L64.5398 27.6876C64.5619 27.6433 64.5509 27.588 64.5066 27.5217C64.4624 27.4774 64.4292 27.4553 64.4071 27.4553V27.6212L64.3407 27.9862L63.3453 28.6498C63.3453 29.0258 63.2347 29.3245 63.0135 29.5457H62.8144C62.726 29.6784 62.6485 29.8 62.5822 29.9106C62.5158 30.0212 62.4163 30.1318 62.2836 30.2424C62.2614 30.2646 62.2946 30.2977 62.3831 30.342C62.4716 30.4083 62.5269 30.4415 62.549 30.4415C62.4163 30.5521 62.3278 30.6627 62.2836 30.7733C62.2393 30.906 62.1951 31.0609 62.1508 31.2378C61.996 31.1715 61.9075 31.1936 61.8854 31.3042C61.8633 31.4148 61.9296 31.459 62.0845 31.4369L61.6863 32.1669L61.6531 32.0673L61.62 32.0342C61.5978 32.0784 61.5868 32.1558 61.5868 32.2664C61.5868 32.4213 61.5868 32.554 61.5868 32.6646C61.6089 32.7973 61.5536 32.8084 61.4209 32.6978L61.4872 33.0959L61.1554 33.295L61.4872 33.3614C61.3766 33.5162 61.2882 33.6821 61.2218 33.8591C61.1554 34.0581 61.0891 34.2462 61.0227 34.4231L61.2218 34.8545L60.89 35.3853L61.1554 35.5512H60.9564V36.5466H61.2218V36.8453C61.2218 37.0001 61.2107 37.1439 61.1886 37.2766C61.1886 37.4314 61.1776 37.5752 61.1554 37.7079L61.6863 37.9734L61.819 38.5706C61.9739 38.5043 62.0624 38.5596 62.0845 38.7365H61.6863L61.4872 38.5706L61.3545 38.2056C61.2218 38.272 61.0891 38.1835 60.9564 37.9402C60.8236 37.6969 60.713 37.4204 60.6246 37.1107C60.5361 36.8231 60.4808 36.6351 60.4587 36.5466L60.1932 36.2812L60.2264 35.8499L60.0273 35.8167L60.2264 35.3522L59.961 35.1199C59.9831 34.6996 60.0163 34.2683 60.0605 33.8259C60.0826 33.4056 60.1379 32.9853 60.2264 32.565H60.5582L60.7241 32.1005C60.6356 32.0563 60.5914 32.0342 60.5914 32.0342C60.5471 32.0342 60.514 32.0673 60.4918 32.1337C60.4697 32.2001 60.4587 32.2554 60.4587 32.2996C60.4587 32.3438 60.4365 32.3217 60.3923 32.2332C60.3481 32.1448 60.337 32.0784 60.3591 32.0342L60.4587 31.9014L61.0227 30.6074L61.2882 30.707C61.3324 30.6848 61.3545 30.6185 61.3545 30.5079C61.3545 30.3973 61.3324 30.353 61.2882 30.3752L61.3545 30.0765C61.5315 29.9881 61.7195 29.8111 61.9186 29.5457C62.1398 29.3023 62.3389 29.0369 62.5158 28.7493C62.7149 28.4839 62.8587 28.2738 62.9472 28.1189L63.279 28.0526V27.7871C63.3011 27.765 63.3453 27.765 63.4117 27.7871C63.8098 27.4774 64.2191 27.1678 64.6393 26.8581C65.0596 26.5484 65.3582 26.1502 65.5352 25.6636C65.5573 25.6415 65.5905 25.6304 65.6347 25.6304C65.7675 25.6304 65.867 25.6747 65.9334 25.7631L66.1988 25.5641C66.2652 25.4977 66.2983 25.4535 66.2983 25.4313C66.2983 25.3871 66.2652 25.3429 66.1988 25.2986C66.1324 25.2765 66.0771 25.2544 66.0329 25.2323H66.1324L66.7297 24.8673L66.6633 24.8009C66.6633 24.7788 66.7739 24.6682 66.9951 24.4691C67.2163 24.27 67.3712 24.1705 67.4596 24.1705L67.3601 23.5733L67.5592 23.5069L67.526 23.0424L67.7251 22.976C67.703 22.8433 67.703 22.611 67.7251 22.2792C67.7693 21.9253 67.8246 21.5493 67.891 21.1511C67.9795 20.7308 68.0569 20.3548 68.1232 20.023C68.2117 19.6691 68.2781 19.4258 68.3223 19.293L68.1564 18.8617C68.2449 18.6184 68.3002 18.364 68.3223 18.0986C68.3444 17.811 68.3555 17.5234 68.3555 17.2359C68.3555 16.9926 68.3444 16.7492 68.3223 16.5059C68.3223 16.2405 68.3223 15.9972 68.3223 15.776C68.4108 15.8866 68.455 15.8644 68.455 15.7096C68.4772 15.5326 68.4329 15.4995 68.3223 15.6101V14.5151L68.4219 14.5483L68.1564 14.1833C68.1564 14.1833 68.1011 14.2276 67.9905 14.316C67.902 14.3824 67.8357 14.4488 67.7914 14.5151C67.7693 14.5594 67.8357 14.5704 67.9905 14.5483C67.8136 14.7916 67.6034 14.9686 67.3601 15.0792V15.4442L67.0947 15.6101C67.2053 15.6764 67.2384 15.7649 67.1942 15.8755C67.15 15.9861 67.0947 16.0082 67.0283 15.9419V16.3068C67.0062 16.3068 66.9288 16.3953 66.796 16.5723C66.6633 16.7492 66.6744 16.8709 66.8292 16.9373C66.785 17.2248 66.608 17.3907 66.2983 17.435V17.7336L66.4974 17.7999L66.2983 17.9658L66.1324 18.8617C66.044 18.8838 65.9555 18.9612 65.867 19.094C65.8006 19.2267 65.7675 19.3041 65.7675 19.3262L65.867 19.8239L65.4357 20.6534V20.5207L65.4025 20.4543C65.3804 20.4765 65.3693 20.5096 65.3693 20.5539C65.3693 20.6202 65.3914 20.6866 65.4357 20.753C65.4799 20.7972 65.5352 20.8083 65.6016 20.7861C65.4467 21.0073 65.3472 21.2838 65.3029 21.6156C65.2587 21.9253 65.2145 22.2239 65.1702 22.5115C65.1481 22.4894 65.0596 22.6221 64.9048 22.9097L65.0707 23.0424H64.4071C64.2744 22.9318 64.1195 22.8654 63.9426 22.8433C63.7656 22.7991 63.5886 22.7769 63.4117 22.7769C63.3011 22.6 63.1905 22.423 63.0799 22.2461C62.9914 22.0691 62.9472 21.8811 62.9472 21.682C62.9472 21.5272 62.9914 21.3613 63.0799 21.1843H62.8808L62.9472 20.1225H63.0799L62.9472 19.5253C62.9914 19.4811 63.0356 19.4258 63.0799 19.3594C63.1241 19.293 63.0799 19.282 62.9472 19.3262C62.9914 18.5741 63.0246 17.811 63.0467 17.0368C63.0688 16.2626 63.1241 15.5105 63.2126 14.7806H63.3453C63.2568 14.67 63.2126 14.5151 63.2126 14.316C63.2126 14.1833 63.2347 14.0506 63.279 13.9179H63.0799C63.0799 13.1879 62.9472 12.458 62.6817 11.728C62.6154 11.7501 62.5379 11.7612 62.4495 11.7612C62.3831 11.7612 62.3057 11.7612 62.2172 11.7612C62.0624 11.7612 61.8965 11.7722 61.7195 11.7944C61.5647 11.7944 61.4209 11.8386 61.2882 11.9271H61.2218V12.1262H60.4587V11.9934C60.6577 11.9713 60.8236 11.8939 60.9564 11.7612C61.1112 11.6063 61.266 11.4736 61.4209 11.363C61.5978 11.2303 61.7969 11.1971 62.0181 11.2635C61.996 11.2192 62.0071 11.1861 62.0513 11.1639C62.0955 11.1418 62.1287 11.1308 62.1508 11.1308L62.6817 11.2635L63.0135 10.998L64.208 10.9317V11.0312C64.208 11.1861 64.2854 11.2524 64.4403 11.2303C64.5951 11.2082 64.6062 11.2635 64.4734 11.3962L64.8052 11.3298C64.8052 11.4183 64.8384 11.54 64.9048 11.6948C64.9711 11.8497 64.9158 11.905 64.7389 11.8607L64.8052 12.3252C64.8274 12.3252 64.8384 12.3252 64.8384 12.3252C64.8605 12.3031 64.8827 12.2921 64.9048 12.2921C65.0154 12.2921 65.0707 12.3695 65.0707 12.5243C65.0707 12.657 65.0043 12.7455 64.8716 12.7898L65.0707 13.7188L64.7389 13.9179L64.8052 14.4488L65.0707 14.7142C65.0928 14.7363 65.0817 14.7363 65.0375 14.7142C65.0154 14.67 64.9933 14.6478 64.9711 14.6478C64.8827 14.6478 64.8495 14.7142 64.8716 14.8469C64.8937 14.9796 64.9601 15.0018 65.0707 14.9133C65.0707 15.2008 65.0375 15.4442 64.9711 15.6432C64.9269 15.8202 64.8495 16.0414 64.7389 16.3068H64.7721C64.8384 16.3068 64.8937 16.3621 64.938 16.4727C64.9822 16.5612 65.0043 16.6276 65.0043 16.6718C65.0043 16.6939 64.9711 16.7161 64.9048 16.7382C64.8605 16.7603 64.8495 16.7935 64.8716 16.8377H65.0043V17.7336H64.8716L64.6393 17.4681C64.6836 17.7557 64.7389 17.999 64.8052 18.1981C64.8716 18.3972 64.9048 18.6294 64.9048 18.8949C64.9048 18.9612 64.9048 19.0276 64.9048 19.094C64.9048 19.1603 64.8937 19.2267 64.8716 19.293H64.6062V19.3262C64.7168 19.5032 64.7499 19.7023 64.7057 19.9235C64.6836 20.1225 64.6946 20.3216 64.7389 20.5207L64.5398 20.6202L64.7389 20.7198C64.8495 20.7198 64.8937 20.6755 64.8716 20.5871C64.8716 20.4765 64.8495 20.4322 64.8052 20.4543L65.2698 19.1935H65.4357C65.4578 19.1714 65.4357 19.1382 65.3693 19.094C65.3251 19.0497 65.314 19.0276 65.3361 19.0276L65.6016 18.8617L65.5352 18.3308C65.7122 18.1539 65.8228 17.9216 65.867 17.634C65.9776 17.5677 66.0329 17.5345 66.0329 17.5345C66.055 17.5124 66.0661 17.4571 66.0661 17.3686C66.0661 17.258 66.0882 17.0479 66.1324 16.7382H66.4642V16.705C66.4642 16.6386 66.4421 16.5612 66.3979 16.4727C66.3758 16.3621 66.3426 16.2737 66.2983 16.2073L67.0947 14.4488C67.161 14.5372 67.2384 14.493 67.3269 14.316C67.4154 14.117 67.4928 13.8626 67.5592 13.5529C67.6477 13.2432 67.714 12.9557 67.7583 12.6902C67.8246 12.4248 67.8689 12.2589 67.891 12.1925L68.6873 11.9271C68.7758 11.9492 68.7979 11.9934 68.7537 12.0598C68.7315 12.1262 68.7315 12.1704 68.7537 12.1925C68.7979 12.2146 68.8311 12.2257 68.8532 12.2257C68.8974 12.2036 68.9417 12.1925 68.9859 12.1925C69.0523 12.1925 69.0965 12.2368 69.1186 12.3252C69.1408 12.4137 69.1961 12.4358 69.2845 12.3916C69.5942 12.7013 69.7491 13.1437 69.7491 13.7188C69.7491 13.8958 69.7159 14.0727 69.6495 14.2497C69.7159 14.3382 69.7601 14.5372 69.7822 14.8469C69.8265 15.1566 69.8486 15.4995 69.8486 15.8755C69.8486 16.2294 69.8265 16.5723 69.7822 16.9041C69.7601 17.2138 69.7159 17.4239 69.6495 17.5345L69.8154 17.634L69.7491 17.9658L69.6495 17.999V18.5299L69.7491 18.7622H69.55L69.3841 19.3262L69.55 19.8239L69.2845 20.1225L69.55 20.4543L69.2845 20.7198C69.3951 20.764 69.4504 20.941 69.4504 21.2507C69.4504 21.4719 69.4173 21.7041 69.3509 21.9474C69.3067 22.1686 69.2624 22.3345 69.2182 22.4451C69.2624 22.4894 69.3177 22.5115 69.3841 22.5115C69.4504 22.5115 69.4947 22.4894 69.5168 22.4451C69.5389 22.3788 69.4947 22.3124 69.3841 22.2461L70.2136 21.5825L70.1804 21.5161C70.1804 21.4055 70.2136 21.2838 70.2799 21.1511C70.3684 20.9963 70.4569 20.941 70.5454 20.9852C70.7002 20.764 70.8329 20.5318 70.9435 20.2884C71.0763 20.023 71.1869 19.7797 71.2753 19.5585H71.5076C71.5518 19.0497 71.8062 18.7511 72.2707 18.6626C72.2044 19.2156 72.0606 19.6359 71.8394 19.9235C71.6403 20.211 71.4523 20.6092 71.2753 21.1179H71.0763C71.032 21.2064 70.9657 21.306 70.8772 21.4166C70.8108 21.5272 70.8551 21.6046 71.0099 21.6488C70.9878 21.7152 70.8993 21.8258 70.7445 21.9806C70.5896 22.1133 70.4569 22.235 70.3463 22.3456C70.2357 22.4562 70.2357 22.5115 70.3463 22.5115C70.3021 22.6 70.2136 22.6663 70.0809 22.7106C69.9703 22.7548 69.8818 22.7991 69.8154 22.8433L69.6827 23.2415L69.3841 23.3742L69.4173 23.5733L68.8532 24.0378L68.5878 25.8627L68.3223 25.929L68.3555 26.6258L68.0901 26.659L68.3223 26.9908C68.3002 27.0793 68.256 27.1567 68.1896 27.2231C68.1232 27.3115 68.0569 27.3558 67.9905 27.3558L68.0569 27.953H67.8246L67.7251 29.0148L67.2606 29.1807L67.4596 29.7116H67.5592C67.4265 29.8885 67.349 30.0544 67.3269 30.2093C67.3048 30.3641 67.1942 30.5079 66.9951 30.6406L67.1942 31.0388L67.0283 31.4369C66.8956 31.5033 66.7518 31.5918 66.597 31.7024C66.4642 31.813 66.3647 31.9457 66.2983 32.1005H66.5638L66.8292 31.9014V31.9678C66.8292 32.0563 66.796 32.1337 66.7297 32.2001C66.6633 32.2885 66.5859 32.3881 66.4974 32.4987H66.2983L66.4974 33.1623H66.2983L66.3979 33.4941L66.1324 33.8259V34.1577L65.7675 34.3236L66.0329 34.5558C65.9665 34.6886 65.9002 34.8323 65.8338 34.9872C65.7675 35.142 65.7232 35.3079 65.7011 35.4849L65.5352 35.5512H65.6679V35.6508C65.6679 35.7835 65.5684 36.0158 65.3693 36.3476C65.1702 36.6794 65.0154 36.8674 64.9048 36.9116L65.0707 37.2434L64.7389 37.7079L64.6062 37.6748V37.9734L64.6393 38.0397C64.573 38.3494 64.4292 38.637 64.208 38.9024L63.7435 39.0351C63.8541 39.0573 63.9094 39.1015 63.9094 39.1679C63.9094 39.2563 63.832 39.3338 63.6771 39.4001C63.5444 39.4665 63.5223 39.5439 63.6108 39.6324C63.2568 39.8536 62.9582 40.0305 62.7149 40.1633C62.4716 40.3181 62.1287 40.3845 61.6863 40.3623ZM62.9472 19.4589V19.5253C62.9029 19.5474 62.9029 19.5253 62.9472 19.4589ZM91.7818 29.0811L90.4878 29.2139L90.156 29.0811V29.2139L90.0564 29.0811L90.0233 29.1475C89.9348 29.1254 89.8242 29.1033 89.6915 29.0811C89.5587 29.0811 89.426 29.0811 89.2933 29.0811C89.0279 29.0811 88.8067 29.1254 88.6297 29.2139L88.5302 28.9484C88.2647 29.0369 87.9882 29.0811 87.7007 29.0811C87.4352 29.1033 87.1477 29.1033 86.838 29.0811C86.8159 29.0369 86.6942 28.9705 86.473 28.8821C86.2518 28.8157 86.0859 28.7493 85.9753 28.683L85.4444 28.7493C85.4444 28.7272 85.4334 28.7162 85.4112 28.7162C85.4112 28.7162 85.4112 28.7051 85.4112 28.683C85.4112 28.6166 85.4444 28.5613 85.5108 28.5171C85.5993 28.495 85.6435 28.4618 85.6435 28.4175H84.6481C84.5596 28.3069 84.4269 28.2516 84.2499 28.2516C84.073 28.2738 84.0287 28.1742 84.1172 27.953L83.4536 27.8867L83.3209 27.4885L83.2877 27.7208C83.0444 27.5217 82.8121 27.3226 82.5909 27.1235C82.3697 26.9466 82.2038 26.7143 82.0932 26.4267L81.861 26.5263C81.7504 26.4157 81.6508 26.2608 81.5624 26.0618C81.4739 25.8848 81.4407 25.7189 81.4628 25.5641H81.2637L80.9983 24.5023H80.7992L80.7329 23.3078L80.567 23.1419C80.5227 22.8322 80.5006 22.3898 80.5006 21.8147C80.5006 21.3281 80.5117 20.8525 80.5338 20.388C80.578 19.9013 80.6444 19.6027 80.7329 19.4921C80.7771 19.5142 80.8103 19.5474 80.8324 19.5917C80.8545 19.6359 80.8766 19.647 80.8988 19.6248C80.9872 19.4921 80.9872 19.3926 80.8988 19.3262C80.8103 19.2377 80.8213 19.1382 80.9319 19.0276L81.131 17.8995L81.2637 17.9658L81.3301 17.1695H81.5624C81.6066 16.9926 81.673 16.8267 81.7614 16.6718C81.872 16.517 81.9273 16.3621 81.9273 16.2073L81.7946 16.1078L82.0932 15.5769C82.0711 15.7096 82.1043 15.7207 82.1928 15.6101C82.3034 15.4995 82.2813 15.4442 82.1264 15.4442L82.4582 14.7806L82.6573 14.7142L82.6241 14.681L82.79 14.2497L83.1218 14.0506C83.1661 13.8736 83.2545 13.6524 83.3873 13.387C83.52 13.0994 83.6969 12.9114 83.9181 12.8229L84.0509 12.657L83.9181 12.6239H84.0509L84.5154 12.1925V11.8939C84.8251 11.7169 85.1016 11.5068 85.3449 11.2635C85.5882 11.0202 85.7762 10.7437 85.9089 10.434C85.9089 10.4561 85.92 10.4672 85.9421 10.4672C85.9864 10.4672 86.0748 10.4229 86.2076 10.3344C86.3403 10.2238 86.5062 10.1243 86.7053 10.0358V9.96946C86.7053 9.74826 86.838 9.59342 87.1034 9.50494L87.0371 9.60448H87.1034L87.8334 9.04042L87.767 8.9077L88.1984 8.77498C88.1984 8.64226 88.309 8.49848 88.5302 8.34364C88.7735 8.1888 89.0279 8.05608 89.2933 7.94548C89.5809 7.81276 89.7799 7.73534 89.8905 7.71322V7.44778L91.3505 6.65146C91.5274 6.76206 91.638 6.81736 91.6823 6.81736C91.7265 6.81736 91.7486 6.71782 91.7486 6.51874L93.5072 5.78878L93.4408 5.85514C93.4408 5.87726 93.474 5.88832 93.5403 5.88832C93.6288 5.88832 93.7284 5.8662 93.839 5.82196C93.9717 5.77772 94.0159 5.72242 93.9717 5.65606C94.4141 5.5897 94.8897 5.51228 95.3984 5.4238C95.9072 5.3132 96.3606 5.1473 96.7588 4.9261L96.8915 5.05882C97.2012 4.8155 97.6215 4.69384 98.1524 4.69384C98.7054 4.67172 99.1588 4.67172 99.5127 4.69384C99.4906 4.71596 99.4796 4.73808 99.4796 4.7602C99.4796 4.82656 99.5349 4.85974 99.6455 4.85974C99.8445 4.85974 99.8667 4.77126 99.7118 4.5943L100.707 4.89292C100.729 4.8708 100.74 4.83762 100.74 4.79338C100.74 4.77126 100.729 4.74914 100.707 4.72702C100.597 4.68278 100.486 4.63854 100.375 4.5943C100.53 4.55006 100.641 4.5943 100.707 4.72702C100.928 4.79338 101.15 4.82656 101.371 4.82656C101.504 4.82656 101.603 4.8155 101.669 4.79338L101.703 4.9261L101.736 4.99246V4.72702C101.957 4.72702 102.178 4.77126 102.399 4.85974C102.621 4.9261 102.842 5.01458 103.063 5.12518V5.32426L103.494 5.39062V5.65606L104.291 6.2533C104.224 6.31966 104.191 6.39708 104.191 6.48556C104.191 6.57404 104.191 6.66252 104.191 6.751C104.213 6.81736 104.202 6.87266 104.158 6.9169L103.395 6.5851C103.395 6.56298 103.395 6.55192 103.395 6.55192C103.417 6.55192 103.428 6.54086 103.428 6.51874C103.428 6.40814 103.34 6.3086 103.163 6.22012C102.986 6.10952 102.842 6.07634 102.731 6.12058V6.31966L102.897 6.4192H102.731L101.769 6.12058C101.88 5.98786 101.869 5.9215 101.736 5.9215C101.603 5.89938 101.437 5.88832 101.238 5.88832C101.061 5.8662 100.939 5.78878 100.873 5.65606C100.541 5.61182 100.176 5.57864 99.7782 5.55652C99.38 5.51228 98.9597 5.49016 98.5173 5.49016C97.9643 5.49016 97.4224 5.5344 96.8915 5.62288C96.3828 5.71136 95.9404 5.89938 95.5643 6.18694L95.2325 6.12058C94.9228 6.31966 94.4804 6.54086 93.9053 6.78418C93.3302 7.00538 92.7772 7.23764 92.2463 7.48096C91.7154 7.72428 91.3394 8.00078 91.1182 8.31046C91.0961 8.28834 91.0518 8.27728 90.9855 8.27728C90.8085 8.27728 90.7422 8.33258 90.7864 8.44318L89.8905 9.10678C89.8905 9.04042 89.8574 9.00724 89.791 9.00724C89.7025 9.00724 89.6251 9.04042 89.5587 9.10678C89.5145 9.17314 89.5366 9.22844 89.6251 9.27268L88.1984 10.1022L88.0988 10.4672L87.6675 10.799L87.5016 10.6994L86.9043 11.6285H86.6389L86.7053 11.6616H86.838C86.6168 11.9934 86.296 12.2921 85.8758 12.5575C85.4776 12.8008 85.1347 13.0773 84.8472 13.387L84.9135 13.6856C84.6481 13.8626 84.4711 14.128 84.3827 14.4819C84.3163 14.4156 84.2057 14.4819 84.0509 14.681C83.9181 14.858 83.7854 15.0681 83.6527 15.3114C83.5421 15.5548 83.4757 15.7096 83.4536 15.776H83.2877L82.79 16.9704H82.5246C82.2813 17.634 82.0822 18.2755 81.9273 18.8949H81.7614V18.9281C81.7614 18.9723 81.7725 19.0276 81.7946 19.094C81.8389 19.1382 81.861 19.1824 81.861 19.2267L81.7614 19.293L81.5955 20.1557H81.4296C81.4296 20.2884 81.4296 20.4101 81.4296 20.5207C81.4518 20.6313 81.4628 20.7419 81.4628 20.8525C81.4628 21.2728 81.4407 21.6156 81.3965 21.8811C81.3743 22.1244 81.3633 22.3677 81.3633 22.611C81.3633 22.8986 81.4296 23.2193 81.5624 23.5733C81.6951 23.9272 81.9716 24.4359 82.3919 25.0995C82.414 25.0774 82.4361 25.0664 82.4582 25.0664C82.5025 25.0664 82.5246 25.0995 82.5246 25.1659L82.425 25.365L83.52 25.7631V25.8959L85.179 26.5263V26.3604C85.555 26.3825 85.8315 26.4046 86.0085 26.4267C86.2076 26.4489 86.4398 26.5595 86.7053 26.7585C87.5237 26.5373 88.3643 26.4489 89.2269 26.4931C90.0896 26.5373 90.9412 26.4489 91.7818 26.2277L92.3127 26.4267L92.2131 26.1945L92.6445 26.0949L92.744 26.294V26.1945L93.3744 26.2277C93.485 26.0507 93.6841 25.918 93.9717 25.8295C94.2814 25.7631 94.6021 25.7189 94.9339 25.6968C95.2657 25.6747 95.5201 25.6636 95.697 25.6636L96.1616 25.3318L96.6924 25.4313C96.8252 25.1217 97.1017 24.9558 97.5219 24.9336C97.9422 24.9115 98.3072 24.7899 98.6169 24.5687L98.816 24.8009C98.8823 24.7567 98.9044 24.6903 98.8823 24.6018C98.8823 24.4912 98.9266 24.4138 99.015 24.3696L99.4132 24.5687C99.5238 24.3475 99.7229 24.1816 100.01 24.071C100.32 23.9604 100.586 23.8829 100.807 23.8387V23.8055C100.807 23.717 100.884 23.6728 101.039 23.6728C101.216 23.6507 101.349 23.6286 101.437 23.6064L101.537 23.3742C101.802 23.2193 102.068 23.0645 102.333 22.9097C102.598 22.7548 102.875 22.6221 103.163 22.5115V22.5779C103.163 22.6663 103.207 22.7106 103.295 22.7106C103.428 22.7106 103.461 22.611 103.395 22.412L106.215 20.753C106.193 20.7087 106.259 20.6313 106.414 20.5207C106.569 20.388 106.735 20.2663 106.912 20.1557C107.111 20.023 107.233 19.9345 107.277 19.8903L107.41 20.0894C107.454 20.0672 107.52 19.9898 107.609 19.8571C107.719 19.7023 107.83 19.5695 107.94 19.4589C108.051 19.3262 108.14 19.293 108.206 19.3594L108.405 18.9612H108.604C108.648 18.7622 108.792 18.5963 109.035 18.4635C109.301 18.3087 109.511 18.2092 109.666 18.1649L109.832 17.7004L110.263 17.5013L110.164 17.435L110.462 17.2359L110.661 17.435V17.3022L110.462 17.1032L111.192 16.2405L111.458 16.3732L111.657 15.9087C111.723 15.975 111.767 16.0082 111.789 16.0082C111.856 16.0082 111.878 15.9419 111.856 15.8091C111.856 15.6543 111.867 15.5326 111.889 15.4442H112.088L112.42 14.7806C112.42 14.8248 112.431 14.8469 112.453 14.8469C112.497 14.8469 112.552 14.7806 112.619 14.6478C112.685 14.493 112.729 14.4045 112.752 14.3824C112.862 14.2276 112.951 13.9621 113.017 13.5861C113.105 13.21 113.161 12.9335 113.183 12.7566L113.382 12.657L113.183 12.5243C113.294 12.3031 113.349 12.0709 113.349 11.8275C113.349 11.6506 113.327 11.4736 113.282 11.2967C113.26 11.0976 113.227 10.9206 113.183 10.7658C113.205 10.7437 113.216 10.7105 113.216 10.6662C113.216 10.622 113.194 10.5446 113.15 10.434C113.128 10.3234 113.105 10.2128 113.083 10.1022C112.818 10.0358 112.608 9.83674 112.453 9.50494C112.32 9.15102 112.232 8.86346 112.188 8.64226L112.088 8.9077V8.44318C111.977 8.4653 111.789 8.37682 111.524 8.17774C111.281 7.97866 111.037 7.75746 110.794 7.51414C110.551 7.2487 110.374 7.07174 110.263 6.98326H109.931L109.135 6.31966L109.069 6.4192L108.007 5.9215L107.94 5.65606L107.808 5.72242C107.587 5.67818 107.354 5.60076 107.111 5.49016C106.868 5.37956 106.68 5.23578 106.547 5.05882L106.414 5.2579L105.684 4.9261L105.552 4.69384L105.452 4.89292L102.864 4.12978L102.764 3.86434L102.068 4.03024C102.001 3.80904 101.924 3.69844 101.835 3.69844C101.747 3.69844 101.658 3.74268 101.57 3.83116C101.481 3.89752 101.393 3.9307 101.304 3.9307C101.194 3.9307 101.105 3.8201 101.039 3.5989L100.342 3.73162L100.21 3.49936L99.6786 3.5989L99.8114 3.53254H98.5505V3.36664L98.086 3.39982L97.9865 3.53254C97.898 3.55466 97.8095 3.56572 97.721 3.56572C97.6547 3.56572 97.5772 3.56572 97.4888 3.56572C97.0464 3.56572 96.6703 3.44406 96.3606 3.20074C96.2058 3.28922 96.0178 3.33346 95.7966 3.33346C95.6417 3.33346 95.4758 3.31134 95.2989 3.2671C95.1219 3.20074 94.9671 3.13438 94.8344 3.06802C94.768 2.95742 94.7348 2.85788 94.7348 2.7694C94.7348 2.6588 94.7791 2.59244 94.8675 2.57032C94.956 2.52608 95.0445 2.55926 95.133 2.66986L95.5643 2.53714L95.8298 2.17216C96.0731 2.1058 96.3164 2.0505 96.5597 2.00626C96.803 1.9399 97.0353 1.90672 97.2565 1.90672C97.3671 1.90672 97.4666 1.91778 97.5551 1.9399C97.6436 1.9399 97.7321 1.95096 97.8206 1.97308C97.7763 1.84036 97.8537 1.75188 98.0528 1.70764C98.274 1.6634 98.5063 1.64128 98.7496 1.64128C98.9929 1.64128 99.1367 1.64128 99.1809 1.64128L99.0814 1.54174L99.6786 1.50856C99.7671 1.53068 99.8114 1.58598 99.8114 1.67446C99.8114 1.76294 99.8556 1.80718 99.9441 1.80718C100.033 1.80718 100.21 1.70764 100.475 1.50856L101.371 1.67446V1.84036C101.415 1.84036 101.481 1.80718 101.57 1.74082C101.681 1.65234 101.747 1.69658 101.769 1.87354L102.565 1.97308L102.632 2.17216C102.676 2.15004 102.775 2.13898 102.93 2.13898C103.24 2.13898 103.616 2.20534 104.058 2.33806C104.523 2.47078 104.799 2.63668 104.888 2.83576C105.109 2.74728 105.319 2.75834 105.518 2.86894C105.717 2.97954 105.916 3.1012 106.116 3.23392C106.337 3.36664 106.547 3.42194 106.746 3.39982L107.011 3.83116C107.056 3.8754 107.056 3.85328 107.011 3.7648C106.967 3.67632 106.945 3.62102 106.945 3.5989C106.945 3.55466 106.967 3.53254 107.011 3.53254C107.056 3.53254 107.133 3.57678 107.244 3.66526C107.376 3.73162 107.454 3.78692 107.476 3.83116V4.03024C107.94 4.05236 108.339 4.17402 108.67 4.39522C109.002 4.61642 109.323 4.85974 109.633 5.12518C109.964 5.39062 110.318 5.5897 110.694 5.72242C110.672 5.74454 110.661 5.77772 110.661 5.82196C110.661 5.93256 110.739 6.02104 110.893 6.0874C111.048 6.15376 111.192 6.18694 111.325 6.18694L111.557 6.65146C111.579 6.62934 111.612 6.61828 111.657 6.61828C111.745 6.61828 111.823 6.66252 111.889 6.751C111.955 6.83948 111.988 6.9169 111.988 6.98326L112.387 7.18234L112.951 8.17774L113.05 8.0782C113.094 8.0782 113.105 8.14456 113.083 8.27728C113.083 8.38788 113.15 8.39894 113.282 8.31046C113.482 8.59802 113.67 8.89664 113.847 9.20632C114.023 9.516 114.156 9.82568 114.245 10.1354C114.223 10.1132 114.211 10.1243 114.211 10.1685C114.211 10.3013 114.234 10.434 114.278 10.5667V10.6994C114.256 10.6552 114.223 10.6109 114.178 10.5667C114.134 10.5003 114.09 10.4561 114.046 10.434V10.6331C114.178 10.8543 114.278 11.1529 114.344 11.5289C114.411 11.905 114.444 12.281 114.444 12.657C114.444 13.011 114.422 13.3428 114.377 13.6524C114.333 13.9621 114.256 14.2054 114.145 14.3824L113.946 14.5151L114.145 14.5815C113.946 15.1787 113.67 15.7428 113.316 16.2737C112.962 16.7824 112.608 17.2801 112.254 17.7668C111.922 18.2313 111.679 18.7179 111.524 19.2267L111.192 19.3594L111.325 19.4921H111.225L111.192 19.6912H110.993C110.971 19.7133 110.938 19.8018 110.893 19.9566C110.849 20.0894 110.783 20.0783 110.694 19.9235C110.606 20.1004 110.429 20.3548 110.164 20.6866C109.898 21.0184 109.644 21.1954 109.4 21.2175L109.069 21.6488H109.002C108.936 21.6488 108.87 21.682 108.803 21.7484C108.759 21.7926 108.759 21.8368 108.803 21.8811L108.339 22.2129L108.272 21.9806L107.609 22.611L107.078 22.8101C107.078 22.8101 107.078 22.8212 107.078 22.8433C107.1 22.8433 107.111 22.8654 107.111 22.9097C107.111 23.0203 107.056 23.1087 106.945 23.1751C106.901 23.2193 106.834 23.2415 106.746 23.2415C106.658 23.2193 106.591 23.2304 106.547 23.2746L106.613 23.3742L106.215 23.6064C106.259 23.518 106.226 23.4405 106.116 23.3742C106.027 23.3078 105.994 23.341 106.016 23.4737L106.082 23.8055L105.552 24.1373C105.529 24.1152 105.496 24.1041 105.452 24.1041C105.341 24.1041 105.209 24.1594 105.054 24.27C104.921 24.3585 104.866 24.4359 104.888 24.5023C104.711 24.635 104.49 24.7567 104.224 24.8673C103.981 24.9558 103.738 25 103.494 25C103.516 25.0221 103.528 25.0553 103.528 25.0995C103.528 25.1659 103.461 25.2101 103.328 25.2323C103.218 25.2544 103.14 25.3207 103.096 25.4313L102.632 25.3318L102.731 25.5641C102.621 25.6304 102.433 25.73 102.167 25.8627C101.924 25.9954 101.681 26.1171 101.437 26.2277C101.194 26.3604 101.017 26.4267 100.906 26.4267H100.807C100.718 26.4267 100.63 26.4378 100.541 26.4599C100.453 26.482 100.431 26.5373 100.475 26.6258L98.9487 27.1567C98.9044 27.0019 98.8602 26.9355 98.816 26.9576C98.7938 26.9797 98.7164 27.035 98.5837 27.1235C98.4731 27.212 98.2408 27.2673 97.8869 27.2894C97.8427 27.3115 97.8206 27.3558 97.8206 27.4221C97.8206 27.4885 97.8206 27.5327 97.8206 27.5549H96.8915L96.7588 27.8203C96.604 27.8424 96.4049 27.8756 96.1616 27.9198C95.9182 27.9862 95.7413 28.0857 95.6307 28.2185H95.1662V28.4175C95.0113 28.4618 94.8344 28.5171 94.6353 28.5834C94.4362 28.6498 94.2371 28.683 94.038 28.683C93.9717 28.683 93.9053 28.6719 93.839 28.6498C93.7726 28.6498 93.7062 28.6387 93.6399 28.6166L93.109 28.8821L92.7772 28.683L92.4122 28.9484C92.3459 28.8821 92.2463 28.8489 92.1136 28.8489C91.8924 28.8489 91.7818 28.9263 91.7818 29.0811ZM119.727 25.4313C119.085 25.4535 118.554 25.2323 118.134 24.7677C118.178 24.0378 118.488 23.5511 119.063 23.3078C119.638 23.0645 120.258 22.9539 120.921 22.976L120.955 23.0756V23.1751C120.822 23.2415 120.722 23.3631 120.656 23.5401C120.744 23.5401 120.778 23.5401 120.755 23.5401C120.755 23.5401 120.778 23.5733 120.822 23.6396C120.755 23.706 120.667 23.8276 120.556 24.0046H120.457C120.457 23.894 120.457 23.8498 120.457 23.8719C120.479 23.8719 120.446 23.8387 120.357 23.7723C120.291 23.8829 120.258 23.9935 120.258 24.1041C120.368 24.0599 120.446 24.0599 120.49 24.1041C120.468 24.1705 120.435 24.2369 120.39 24.3032C120.368 24.3475 120.335 24.3917 120.291 24.4359H120.092V24.6682C120.092 24.8009 120.059 24.9668 119.992 25.1659C119.948 25.188 119.904 25.1991 119.86 25.1991C119.815 25.2212 119.771 25.2323 119.727 25.2323V25.4313Z" fill="white" fill-opacity="0.8"/>
</svg>
