<svg width="540" height="540" viewBox="0 0 540 540" fill="none" xmlns="http://www.w3.org/2000/svg">
<path d="M169.2 483.3C132.192 465.869 100.351 439.116 76.8016 405.666C53.2526 372.216 38.8044 333.219 34.875 292.5H1.125C12.6 431.1 128.475 540 270 540L284.85 539.325L199.125 453.6L169.2 483.3ZM189.225 336.6C184.95 336.6 180.9 335.925 177.525 334.8C174.164 333.684 171.091 331.84 168.525 329.4C166.05 327.15 164.025 324.45 162.675 321.075C161.325 317.925 160.65 314.325 160.65 310.5H131.4C131.4 318.6 132.975 325.8 136.125 331.875C139.275 337.95 143.55 343.125 148.725 347.4C154.125 351.45 160.2 354.6 167.175 356.625C173.925 358.875 181.125 360 188.775 360C197.1 360 204.975 358.875 211.95 356.625C219.15 354.375 225.45 351 230.625 346.725C235.8 342.45 240.075 337.05 243 330.525C245.925 324 247.5 316.8 247.5 308.7C247.5 304.425 247.05 300.15 245.925 296.1C244.858 292.011 243.108 288.132 240.75 284.625C238.5 281.025 235.35 277.875 231.75 274.95C227.925 272.025 223.425 269.775 218.025 267.975C226.158 264.351 233.1 258.501 238.05 251.1C240.3 247.725 241.875 244.35 243 240.75C244.125 237.15 244.575 233.55 244.575 229.95C244.575 221.85 243.225 214.65 240.525 208.35C238.023 202.317 234.084 196.987 229.05 192.825C224.55 188.55 218.475 185.4 211.725 183.15C204.75 181.125 197.1 180 188.775 180C180.675 180 173.25 181.125 166.275 183.6C159.525 186.075 153.45 189.45 148.5 193.725C143.775 198 139.95 202.95 137.025 208.8C134.325 214.65 132.975 220.95 132.975 227.925H162.225C162.225 224.1 162.9 220.725 164.25 217.8C165.6 214.875 167.4 212.175 169.875 210.15C172.35 208.125 175.05 206.325 178.425 205.2C181.8 204.075 185.175 203.4 189.225 203.4C198.225 203.4 204.975 205.65 209.25 210.375C213.525 214.875 215.775 221.4 215.775 229.725C215.775 233.775 215.1 237.375 213.975 240.75C212.856 243.967 210.917 246.837 208.35 249.075C205.875 251.325 202.725 253.125 199.125 254.475C195.525 255.825 191.025 256.5 186.075 256.5H168.75V279.675H186.075C191.025 279.675 195.525 280.125 199.575 281.25C203.625 282.375 207 284.175 209.7 286.425C212.4 288.9 214.65 291.825 216.225 295.425C217.8 299.025 218.475 303.3 218.475 308.25C218.475 317.475 215.775 324.45 210.6 329.175C205.425 334.35 198.225 336.6 189.225 336.6V336.6ZM381.6 203.4C374.4 195.975 365.85 190.125 355.95 186.075C346.275 182.025 335.25 180 323.1 180H270V360H321.75C334.125 360 345.6 357.975 355.725 353.925C365.85 349.875 374.625 344.25 381.825 336.825C389.025 329.4 394.65 320.4 398.475 310.05C402.3 299.475 404.325 287.775 404.325 274.725V265.725C404.325 252.675 402.3 240.975 398.475 230.4C394.425 219.825 388.8 210.825 381.6 203.4V203.4ZM372.825 274.5C372.825 283.95 371.7 292.275 369.675 299.925C367.425 307.35 364.275 313.875 360 319.05C355.725 324.225 350.325 328.275 344.025 330.975C337.5 333.675 330.075 335.025 321.75 335.025H301.275V205.2H323.1C339.3 205.2 351.675 210.375 360 220.725C368.55 231.075 372.825 245.925 372.825 265.5V274.5V274.5ZM270 0L255.15 0.675L340.875 86.4L370.8 56.475C444.375 91.35 497.025 162.675 504.9 247.275H538.65C527.4 108.9 411.525 0 270 0Z" fill="white" fill-opacity="0.8"/>
</svg>
