<svg width="14" height="10" viewBox="0 0 14 10" fill="none" xmlns="http://www.w3.org/2000/svg">
<path fill-rule="evenodd" clip-rule="evenodd" d="M-1.96729e-07 5.49937C-2.02525e-07 5.36676 0.0526619 5.23958 0.146401 5.14581C0.24014 5.05205 0.367278 4.99937 0.499845 4.99937L12.2892 4.99937L9.14318 1.85337C9.04932 1.75948 8.99659 1.63214 8.99659 1.49937C8.99659 1.36659 9.04932 1.23925 9.14318 1.14537C9.23704 1.05148 9.36433 0.998737 9.49707 0.998737C9.6298 0.998737 9.7571 1.05148 9.85096 1.14537L13.8497 5.14537C13.8963 5.19181 13.9332 5.24699 13.9584 5.30773C13.9836 5.36848 13.9966 5.4336 13.9966 5.49937C13.9966 5.56514 13.9836 5.63026 13.9584 5.691C13.9332 5.75175 13.8963 5.80692 13.8497 5.85337L9.85096 9.85337C9.7571 9.94725 9.6298 10 9.49707 10C9.36433 10 9.23704 9.94725 9.14318 9.85337C9.04932 9.75948 8.99659 9.63214 8.99659 9.49937C8.99659 9.36659 9.04932 9.23925 9.14318 9.14537L12.2892 5.99937L0.499846 5.99937C0.367278 5.99937 0.24014 5.94669 0.146401 5.85292C0.052662 5.75915 -1.90932e-07 5.63198 -1.96729e-07 5.49937Z" fill="white" fill-opacity="0.8"/>
</svg>
